<svg width="10" height="10" viewBox="0 0 10 10" fill="none" xmlns="http://www.w3.org/2000/svg">
<path d="M-1.40039 -1H11.4004C11.5993 -0.999908 11.7677 -0.929094 11.873 -0.836914C11.9739 -0.748501 12 -0.659264 12 -0.599609V7.7998C12 7.85948 11.974 7.94867 11.873 8.03711C11.7677 8.12929 11.5993 8.2001 11.4004 8.2002H6.14355L5.86035 8.44824L2.95117 11H2.7998V8.2002H-1.40039C-1.59927 8.2001 -1.7677 8.12929 -1.87305 8.03711C-1.97401 7.94867 -2 7.85948 -2 7.7998V-0.599609C-2 -0.659263 -1.97393 -0.7485 -1.87305 -0.836914C-1.79398 -0.906097 -1.67926 -0.963187 -1.54297 -0.987305L-1.40039 -1Z" fill="#989898" stroke="#989898" stroke-width="2"/>
</svg>
