<svg width="23" height="23" viewBox="0 0 23 23" fill="none" xmlns="http://www.w3.org/2000/svg">
<rect x="0.5" y="0.5" width="22" height="22" rx="11" stroke="#E3E5E7" stroke-opacity="0.4"/>
<path d="M6.08071 10.4129C5.48487 10.4144 4.99856 10.9105 5.00001 11.5155C5.00146 12.1205 5.49014 12.6144 6.08598 12.6129C6.68181 12.6115 7.16812 12.1153 7.16667 11.5103C7.16522 10.9053 6.67654 10.4115 6.08071 10.4129ZM16.914 10.387C16.3182 10.3884 15.8319 10.8846 15.8333 11.4896C15.8348 12.0946 16.3234 12.5884 16.9193 12.587C17.5151 12.5855 18.0014 12.0894 18 11.4844C17.9985 10.8794 17.5098 10.3856 16.914 10.387ZM11.4974 10.4C10.9015 10.4014 10.4152 10.8975 10.4167 11.5025C10.4181 12.1075 10.9068 12.6014 11.5026 12.5999C12.0985 12.5985 12.5848 12.1024 12.5833 11.4974C12.5819 10.8924 12.0932 10.3985 11.4974 10.4Z" fill="#595E69"/>
</svg>
