<svg width="10" height="10" viewBox="0 0 10 10" fill="none" xmlns="http://www.w3.org/2000/svg">
<path d="M-0.599609 0.349609H10.5996C10.8028 0.349609 10.9684 0.414964 11.0645 0.490234C11.1099 0.52592 11.1321 0.557311 11.1416 0.575195C11.1494 0.590042 11.1504 0.597881 11.1504 0.599609V7.2002C11.1504 7.20149 11.1498 7.20914 11.1416 7.22461C11.1322 7.24247 11.11 7.27378 11.0645 7.30957C10.9685 7.38487 10.8028 7.4502 10.5996 7.4502H6.03516L5.80371 7.63184L3.24219 9.65039H3.0498V7.4502H-0.599609C-0.802842 7.4502 -0.968455 7.38487 -1.06445 7.30957C-1.11 7.27378 -1.13219 7.24247 -1.1416 7.22461C-1.14976 7.20914 -1.15039 7.20149 -1.15039 7.2002V0.599609C-1.15035 0.597881 -1.14943 0.590042 -1.1416 0.575195C-1.13214 0.557311 -1.10987 0.52592 -1.06445 0.490234C-0.968442 0.414963 -0.802775 0.349609 -0.599609 0.349609Z" stroke="#989898" stroke-width="1.7"/>
</svg>
