<svg width="25" height="25" viewBox="0 0 25 25" fill="none" xmlns="http://www.w3.org/2000/svg">
<path d="M10.4166 4.16663C9.31152 4.16663 8.25171 4.60561 7.47031 5.38701C6.68891 6.16842 6.24992 7.22822 6.24992 8.33329C6.24992 9.43836 6.68891 10.4982 7.47031 11.2796C8.25171 12.061 9.31152 12.5 10.4166 12.5C11.5217 12.5 12.5815 12.061 13.3629 11.2796C14.1443 10.4982 14.5833 9.43836 14.5833 8.33329C14.5833 7.22822 14.1443 6.16842 13.3629 5.38701C12.5815 4.60561 11.5217 4.16663 10.4166 4.16663ZM17.7083 12.5C17.6446 12.4988 17.5826 12.52 17.533 12.5601C17.4835 12.6001 17.4497 12.6562 17.4374 12.7187L17.2395 14.0937C16.927 14.2291 16.6249 14.3958 16.3541 14.5833L15.0624 14.0625C14.9478 14.0625 14.8124 14.0625 14.7395 14.1979L13.6978 16C13.6353 16.1145 13.6562 16.25 13.7603 16.3333L14.8645 17.1875C14.823 17.5334 14.823 17.8831 14.8645 18.2291L13.7603 19.0833C13.7135 19.1234 13.6818 19.1784 13.6705 19.239C13.6591 19.2996 13.6687 19.3622 13.6978 19.4166L14.7395 21.2187C14.802 21.3541 14.9374 21.3541 15.0624 21.3541L16.3541 20.8333C16.6249 21.0208 16.9166 21.1979 17.2395 21.3229L17.4374 22.6979C17.4583 22.8229 17.5624 22.9166 17.7083 22.9166H19.7916C19.9062 22.9166 20.0208 22.8229 20.0416 22.6979L20.2395 21.3229C20.552 21.1875 20.8333 21.0208 21.1145 20.8333L22.3958 21.3541C22.5312 21.3541 22.6666 21.3541 22.7395 21.2187L23.7812 19.4166C23.8103 19.3622 23.8199 19.2996 23.8085 19.239C23.7972 19.1784 23.7655 19.1234 23.7187 19.0833L22.6041 18.2291C22.6249 18.052 22.6458 17.8854 22.6458 17.7083C22.6458 17.5312 22.6353 17.3645 22.6041 17.1875L23.7083 16.3333C23.7551 16.2931 23.7868 16.2382 23.7981 16.1776C23.8095 16.117 23.7998 16.0543 23.7708 16L22.7291 14.1979C22.6666 14.0625 22.5312 14.0625 22.3958 14.0625L21.1145 14.5833C20.8333 14.3958 20.552 14.2187 20.2291 14.0937L20.0312 12.7187C20.0246 12.6594 19.9967 12.6045 19.9526 12.5642C19.9085 12.5239 19.8513 12.5011 19.7916 12.5H17.7083ZM10.4166 14.5833C5.81242 14.5833 2.08325 16.4479 2.08325 18.75V20.8333H12.1666C11.7017 19.857 11.4597 18.7896 11.4583 17.7083C11.4604 16.6617 11.6877 15.6279 12.1249 14.677C11.5728 14.6145 10.9999 14.5833 10.4166 14.5833ZM18.7499 16.1458C19.6145 16.1458 20.3124 16.8437 20.3124 17.7083C20.3124 18.5729 19.6145 19.2708 18.7499 19.2708C17.8749 19.2708 17.1874 18.5729 17.1874 17.7083C17.1874 16.8437 17.8853 16.1458 18.7499 16.1458Z" fill="#697076"/>
</svg>
