<svg width="10" height="10" viewBox="0 0 10 10" fill="none" xmlns="http://www.w3.org/2000/svg">
<path d="M-0.599609 0.5H10.5996C10.7731 0.5 10.905 0.556177 10.9717 0.608398C10.986 0.619637 10.9944 0.630219 11 0.636719V7.16309C10.9944 7.16959 10.9861 7.1801 10.9717 7.19141C10.905 7.24365 10.7732 7.2998 10.5996 7.2998H5.9834L5.71094 7.51465L3.2002 9.49219V7.2998H-0.599609C-0.773209 7.2998 -0.905047 7.24365 -0.97168 7.19141C-0.986067 7.1801 -0.994364 7.16959 -1 7.16309V0.636719C-0.994355 0.630219 -0.985984 0.619637 -0.97168 0.608398C-0.905018 0.556176 -0.773127 0.5 -0.599609 0.5Z" fill="#989898" stroke="#989898" stroke-width="2"/>
</svg>
