<svg width="23" height="23" viewBox="0 0 23 23" fill="none" xmlns="http://www.w3.org/2000/svg">
<rect x="0.5" y="0.5" width="22" height="22" rx="11" stroke="#E3E5E7" stroke-opacity="0.4"/>
<path d="M6.08064 10.413C5.48481 10.4144 4.9985 10.9106 4.99995 11.5156C5.0014 12.1206 5.49008 12.6144 6.08592 12.613C6.68175 12.6116 7.16806 12.1154 7.16661 11.5104C7.16516 10.9054 6.67648 10.4116 6.08064 10.413ZM16.9139 10.387C16.3181 10.3885 15.8318 10.8846 15.8333 11.4896C15.8347 12.0946 16.3234 12.5885 16.9192 12.587C17.515 12.5856 18.0014 12.0894 17.9999 11.4844C17.9985 10.8794 17.5098 10.3856 16.9139 10.387ZM11.4973 10.4C10.9015 10.4014 10.4152 10.8976 10.4166 11.5026C10.4181 12.1076 10.9067 12.6014 11.5026 12.6C12.0984 12.5986 12.5847 12.1024 12.5833 11.4974C12.5818 10.8924 12.0931 10.3986 11.4973 10.4Z" fill="#595E69"/>
</svg>
