<svg width="22" height="19" viewBox="0 0 22 19" fill="none" xmlns="http://www.w3.org/2000/svg">
<path d="M8.33333 0C7.22826 0 6.16846 0.438987 5.38705 1.22039C4.60565 2.00179 4.16667 3.0616 4.16667 4.16667C4.16667 5.27174 4.60565 6.33154 5.38705 7.11294C6.16846 7.89435 7.22826 8.33333 8.33333 8.33333C9.4384 8.33333 10.4982 7.89435 11.2796 7.11294C12.061 6.33154 12.5 5.27174 12.5 4.16667C12.5 3.0616 12.061 2.00179 11.2796 1.22039C10.4982 0.438987 9.4384 0 8.33333 0ZM15.625 8.33333C15.5613 8.33215 15.4993 8.35342 15.4498 8.39343C15.4003 8.43343 15.3664 8.4896 15.3542 8.55208L15.1562 9.92708C14.8437 10.0625 14.5417 10.2292 14.2708 10.4167L12.9792 9.89583C12.8646 9.89583 12.7292 9.89583 12.6562 10.0312L11.6146 11.8333C11.5521 11.9479 11.5729 12.0833 11.6771 12.1667L12.7812 13.0208C12.7398 13.3668 12.7398 13.7165 12.7812 14.0625L11.6771 14.9167C11.6303 14.9568 11.5986 15.0117 11.5872 15.0723C11.5758 15.1329 11.5855 15.1956 11.6146 15.25L12.6562 17.0521C12.7187 17.1875 12.8542 17.1875 12.9792 17.1875L14.2708 16.6667C14.5417 16.8542 14.8333 17.0312 15.1562 17.1562L15.3542 18.5312C15.375 18.6562 15.4792 18.75 15.625 18.75H17.7083C17.8229 18.75 17.9375 18.6562 17.9583 18.5312L18.1562 17.1562C18.4687 17.0208 18.75 16.8542 19.0312 16.6667L20.3125 17.1875C20.4479 17.1875 20.5833 17.1875 20.6562 17.0521L21.6979 15.25C21.727 15.1956 21.7367 15.1329 21.7253 15.0723C21.7139 15.0117 21.6822 14.9568 21.6354 14.9167L20.5208 14.0625C20.5417 13.8854 20.5625 13.7187 20.5625 13.5417C20.5625 13.3646 20.5521 13.1979 20.5208 13.0208L21.625 12.1667C21.6718 12.1265 21.7035 12.0716 21.7149 12.011C21.7262 11.9504 21.7166 11.8877 21.6875 11.8333L20.6458 10.0312C20.5833 9.89583 20.4479 9.89583 20.3125 9.89583L19.0312 10.4167C18.75 10.2292 18.4688 10.0521 18.1458 9.92708L17.9479 8.55208C17.9413 8.49275 17.9134 8.43783 17.8693 8.39758C17.8252 8.35732 17.768 8.33449 17.7083 8.33333H15.625ZM8.33333 10.4167C3.72917 10.4167 0 12.2812 0 14.5833V16.6667H10.0833C9.61843 15.6904 9.37648 14.623 9.375 13.5417C9.37711 12.4951 9.60449 11.4613 10.0417 10.5104C9.48958 10.4479 8.91667 10.4167 8.33333 10.4167ZM16.6667 11.9792C17.5312 11.9792 18.2292 12.6771 18.2292 13.5417C18.2292 14.4062 17.5312 15.1042 16.6667 15.1042C15.7917 15.1042 15.1042 14.4062 15.1042 13.5417C15.1042 12.6771 15.8021 11.9792 16.6667 11.9792Z" fill="#697076"/>
</svg>
