<svg width="13" height="14" viewBox="0 0 13 14" fill="none" xmlns="http://www.w3.org/2000/svg">
<rect x="1.5" y="1.5" width="10" height="11" fill="#989898"/>
<path d="M6.5 12.3682L2.6 13.8524C1.98095 14.0861 1.39286 14.0415 0.835714 13.7189C0.278571 13.3962 0 12.9391 0 12.3476V1.6491C0 1.1956 0.182 0.807509 0.546 0.484835C0.91 0.162161 1.34705 0.0005497 1.85714 0H11.1429C11.6536 0 12.0909 0.161612 12.4549 0.484835C12.8189 0.808059 13.0006 1.19615 13 1.6491V12.3476C13 12.9386 12.7214 13.3956 12.1643 13.7189C11.6071 14.0421 11.019 14.0866 10.4 13.8524L6.5 12.3682ZM6.5 10.5542L11.1429 12.327V1.6491H1.85714V12.327L6.5 10.5542ZM6.5 1.6491H1.85714H11.1429H6.5Z" fill="#989898"/>
</svg>
