<svg width="14" height="11" viewBox="0 0 14 11" fill="none" xmlns="http://www.w3.org/2000/svg">
<path d="M1.40039 1H12.5996C12.7731 1 12.905 1.05618 12.9717 1.1084C12.986 1.11964 12.9944 1.13022 13 1.13672V7.66309C12.9944 7.66959 12.9861 7.6801 12.9717 7.69141C12.905 7.74365 12.7732 7.7998 12.5996 7.7998H7.9834L7.71094 8.01465L5.2002 9.99219V7.7998H1.40039C1.22679 7.7998 1.09495 7.74365 1.02832 7.69141C1.01393 7.6801 1.00564 7.66959 1 7.66309V1.13672C1.00565 1.13022 1.01402 1.11964 1.02832 1.1084C1.09498 1.05618 1.22687 1 1.40039 1Z" fill="#989898" stroke="#989898" stroke-width="2"/>
</svg>
