<svg width="288" height="39" viewBox="0 0 288 39" fill="none" xmlns="http://www.w3.org/2000/svg">
<g clip-path="url(#clip0_2048_19)">
<path d="M30.5265 25.0941C30.6869 24.9412 30.7672 24.7475 30.7674 24.513C30.7676 24.2785 30.6876 24.0772 30.5275 23.9091C29.468 22.7974 28.3359 21.9152 27.1312 21.2626C25.9265 20.61 24.7139 20.1653 23.4934 19.9285C22.2729 19.6917 20.8705 19.5759 19.2861 19.5811C19.0395 19.5818 18.8422 19.6527 18.6941 19.7938C18.5337 19.9467 18.4534 20.1404 18.4532 20.3749C18.453 20.6094 18.533 20.8107 18.6931 20.9788C18.8409 21.1339 19.0382 21.2235 19.2847 21.2475C19.5991 21.2809 20.0461 21.3113 20.6255 21.3387C21.205 21.3662 21.615 21.3887 21.8554 21.4062C23.4643 21.5627 24.8342 21.913 25.965 22.4572C27.0959 23.0014 28.2218 23.8617 29.3429 25.038C29.503 25.2061 29.7002 25.2957 29.9345 25.3068C30.1688 25.3178 30.3661 25.247 30.5265 25.0941ZM37.0896 28.3118C36.5034 28.8704 35.8465 29.3731 35.1186 29.8201C33.4533 30.8398 31.7035 31.3695 29.8694 31.4092C28.0353 31.4489 26.1075 31.0814 24.086 30.3068C22.1015 29.5586 20.4194 28.4606 19.0396 27.0127C18.128 26.0561 17.3921 24.9937 16.8321 23.8254C16.7705 23.699 16.6291 23.2911 16.4077 22.6017C16.1863 21.9124 16.0048 21.4933 15.8631 21.3447C15.7645 21.2413 15.5442 21.2077 15.202 21.2439C14.8598 21.2802 14.5053 21.3406 14.1384 21.425C13.7715 21.5095 13.3939 21.5456 13.0055 21.5334C12.6171 21.5212 12.3336 21.4213 12.155 21.2339C11.8901 20.956 11.7485 20.6993 11.7302 20.4639C11.7119 20.2285 11.7553 19.9065 11.8605 19.498C11.8728 19.4615 11.8883 19.4098 11.9068 19.3428C11.9254 19.2758 11.9393 19.2286 11.9485 19.2013C11.9578 19.174 11.9779 19.1363 12.0087 19.0884C12.0396 19.0405 12.0766 18.996 12.1198 18.9548C12.3358 18.749 12.658 18.6331 13.0865 18.6071C13.515 18.5811 13.9264 18.6083 14.3209 18.6887C14.7154 18.7691 15.0976 18.8242 15.4675 18.8541C15.8374 18.884 16.0809 18.843 16.1981 18.7313C16.2228 18.7078 16.2969 18.5508 16.4205 18.2604C16.544 17.97 16.6304 17.789 16.6798 17.7173C16.939 17.3592 17.2322 17.0244 17.5591 16.7128C18.2687 16.0366 19.0813 15.5304 19.9971 15.1942C20.9129 14.858 21.8485 14.7002 22.8041 14.7207C23.7596 14.7413 24.7135 14.8837 25.6658 15.1479C26.6181 15.412 27.541 15.7906 28.4345 16.2834C28.8843 16.5331 29.4096 16.9267 30.0102 17.4644C30.6109 18.002 31.1915 18.5556 31.752 19.1253C32.3126 19.695 32.8808 20.2542 33.4568 20.803C34.0328 21.3518 34.6104 21.8096 35.1896 22.1765C35.7688 22.5434 36.2927 22.7441 36.7612 22.7786L37.3067 22.8044L37.8384 22.8435L38.273 22.9289L38.7583 23.1416L39.2019 23.5237C39.4421 23.7758 39.5173 24.1389 39.4276 24.6129C39.3378 25.087 39.1386 25.5698 38.8299 26.0612C38.5213 26.5527 38.2127 26.9948 37.9041 27.3876C37.5955 27.7803 37.324 28.0884 37.0896 28.3118Z" fill="url(#paint0_radial_2048_19)"/>
</g>
<g clip-path="url(#clip1_2048_19)">
<path d="M21.4746 11.0597C21.4461 10.8028 21.3199 10.5917 21.0959 10.4264C20.8719 10.2612 20.621 10.194 20.343 10.2249C18.5041 10.4289 16.8313 10.8621 15.3247 11.5245C13.818 12.1868 12.5043 13.0028 11.3835 13.9725C10.2627 14.9422 9.12409 16.1665 7.96778 17.6453C7.78767 17.8754 7.71077 18.109 7.73708 18.3462C7.76559 18.6031 7.89183 18.8142 8.1158 18.9794C8.33976 19.1446 8.59073 19.2118 8.86871 19.181C9.1253 19.1525 9.35544 19.0319 9.55912 18.8193C9.82147 18.5501 10.1781 18.1553 10.6291 17.6351C11.08 17.1149 11.402 16.7491 11.595 16.5376C12.9238 15.1497 14.2626 14.1208 15.6115 13.4509C16.9604 12.781 18.6077 12.3382 20.5535 12.1223C20.8315 12.0914 21.0616 11.9709 21.2439 11.7606C21.4262 11.5502 21.5031 11.3166 21.4746 11.0597ZM29.3599 7.21364C29.4641 8.15246 29.463 9.11796 29.3566 10.1101C29.1104 12.3783 28.3341 14.3802 27.0277 16.1158C25.7213 17.8514 23.9571 19.3876 21.7352 20.7246C19.5657 22.0457 17.2835 22.8391 14.8887 23.1048C13.3064 23.2804 11.7518 23.2178 10.2248 22.917C10.059 22.8854 9.56553 22.7301 8.7445 22.451C7.92346 22.172 7.39 22.0461 7.1441 22.0734C6.97304 22.0924 6.77943 22.2739 6.56327 22.618C6.34711 22.9621 6.14493 23.3347 5.95673 23.7357C5.76853 24.1368 5.52626 24.5138 5.22992 24.8668C4.93358 25.2198 4.63038 25.4135 4.32033 25.4479C3.86061 25.4989 3.51157 25.4501 3.27321 25.3015C3.03485 25.1528 2.759 24.8858 2.44567 24.5004C2.4199 24.4633 2.38179 24.4125 2.33135 24.3481C2.28091 24.2836 2.24603 24.2375 2.2267 24.2096C2.20738 24.1817 2.18613 24.1366 2.16297 24.0741C2.1398 24.0117 2.12438 23.9458 2.11671 23.8767C2.07833 23.5308 2.20375 23.1492 2.49297 22.732C2.78219 22.3148 3.10978 21.9508 3.47576 21.6401C3.84173 21.3294 4.17453 21.0123 4.47417 20.689C4.7738 20.3656 4.9132 20.11 4.89237 19.9223C4.88798 19.8827 4.79231 19.7033 4.60535 19.3839C4.41839 19.0645 4.30874 18.8566 4.27639 18.7601C4.12425 18.2668 4.01913 17.7583 3.96101 17.2345C3.83492 16.0981 3.94685 14.9852 4.29679 13.896C4.64673 12.8067 5.18172 11.8245 5.90174 10.9493C6.62177 10.0741 7.457 9.28617 8.40743 8.58548C9.35786 7.8848 10.396 7.29192 11.5219 6.80686C12.0902 6.56374 12.8513 6.35174 13.8053 6.17086C14.7593 5.98999 15.7139 5.83905 16.6691 5.71806C17.6244 5.59707 18.5753 5.46156 19.5219 5.31151C20.4685 5.16147 21.3293 4.94591 22.1044 4.66483C22.8796 4.38375 23.4553 4.03726 23.8317 3.62535L24.2563 3.13557L24.6833 2.66803L25.0834 2.32352L25.6425 2.0214L26.3327 1.87729C26.7496 1.83103 27.1517 2.01651 27.5389 2.43373C27.9261 2.85094 28.2415 3.37618 28.4849 4.00943C28.7283 4.64268 28.9246 5.24115 29.0737 5.80483C29.2228 6.36851 29.3182 6.83811 29.3599 7.21364Z" fill="url(#paint1_radial_2048_19)"/>
</g>
<path d="M57.9978 31.27C56.2178 31.27 54.6278 30.93 53.2278 30.25C51.8478 29.57 50.7678 28.62 49.9878 27.4C49.2078 26.18 48.8178 24.79 48.8178 23.23V17.71C48.8178 16.15 49.1978 14.77 49.9578 13.57C50.7378 12.35 51.8078 11.41 53.1678 10.75C54.5278 10.07 56.0878 9.73 57.8478 9.73C59.6078 9.73 61.1678 10 62.5278 10.54C63.9078 11.06 64.9778 11.8 65.7378 12.76C66.4978 13.7 66.8778 14.78 66.8778 16C66.8778 16.74 66.6278 17.33 66.1278 17.77C65.6478 18.19 64.9978 18.4 64.1778 18.4C63.7778 18.4 63.3378 18.34 62.8578 18.22C62.8978 17.74 62.9178 17.27 62.9178 16.81C62.9178 15.75 62.4478 14.89 61.5078 14.23C60.5678 13.57 59.3478 13.24 57.8478 13.24C56.3678 13.24 55.1578 13.66 54.2178 14.5C53.2978 15.32 52.8378 16.39 52.8378 17.71V23.23C52.8378 24.57 53.3178 25.66 54.2778 26.5C55.2378 27.34 56.4778 27.76 57.9978 27.76C59.4978 27.76 60.7178 27.43 61.6578 26.77C62.5978 26.11 63.0678 25.26 63.0678 24.22C63.0678 23.74 63.0478 23.28 63.0078 22.84C63.5078 22.74 63.9278 22.69 64.2678 22.69C65.1078 22.69 65.7778 22.91 66.2778 23.35C66.7778 23.79 67.0278 24.39 67.0278 25.15C67.0278 26.33 66.6478 27.39 65.8878 28.33C65.1278 29.25 64.0578 29.97 62.6778 30.49C61.3178 31.01 59.7578 31.27 57.9978 31.27ZM78.2042 31.27C76.5642 31.27 75.0642 30.95 73.7042 30.31C72.3442 29.65 71.2642 28.76 70.4642 27.64C69.6842 26.52 69.2942 25.3 69.2942 23.98V16.99C69.2942 15.67 69.6842 14.46 70.4642 13.36C71.2642 12.24 72.3442 11.36 73.7042 10.72C75.0642 10.06 76.5642 9.73 78.2042 9.73C79.8442 9.73 81.3442 10.06 82.7042 10.72C84.0842 11.36 85.1642 12.24 85.9442 13.36C86.7442 14.46 87.1442 15.67 87.1442 16.99V23.98C87.1442 25.3 86.7442 26.52 85.9442 27.64C85.1642 28.76 84.0842 29.65 82.7042 30.31C81.3442 30.95 79.8442 31.27 78.2042 31.27ZM78.2042 27.76C79.7042 27.76 80.9042 27.41 81.8042 26.71C82.7042 25.99 83.1542 25.06 83.1542 23.92V17.08C83.1542 15.92 82.7042 14.99 81.8042 14.29C80.9042 13.57 79.7042 13.21 78.2042 13.21C76.7242 13.21 75.5342 13.57 74.6342 14.29C73.7342 14.99 73.2842 15.92 73.2842 17.08V23.92C73.2842 25.06 73.7342 25.99 74.6342 26.71C75.5342 27.41 76.7242 27.76 78.2042 27.76ZM90.0511 12.91C90.0511 11.93 90.3811 11.16 91.0411 10.6C91.7011 10.02 92.5911 9.73 93.7111 9.73L103.851 25.57L104.151 25.33L102.921 23.29V9.73C104.221 9.73 105.201 9.98 105.861 10.48C106.541 10.98 106.881 11.72 106.881 12.7V28.54C106.881 29.28 106.561 29.92 105.921 30.46C105.301 31 104.581 31.27 103.761 31.27L93.0811 14.56L92.7811 14.83L94.0111 16.87V28.3C94.0111 29.28 93.6711 30.02 92.9911 30.52C92.3311 31.02 91.3511 31.27 90.0511 31.27V12.91ZM118.633 31.27C116.833 31.27 115.263 31.05 113.923 30.61C112.583 30.17 111.553 29.55 110.833 28.75C110.133 27.93 109.783 26.98 109.783 25.9C109.783 24.26 110.893 23.44 113.113 23.44C113.193 24.96 113.703 26.11 114.643 26.89C115.603 27.67 116.943 28.06 118.663 28.06C120.083 28.06 121.183 27.82 121.963 27.34C122.743 26.84 123.133 26.15 123.133 25.27C123.133 24.69 122.983 24.22 122.683 23.86C122.383 23.48 121.873 23.15 121.153 22.87C120.433 22.57 119.383 22.27 118.003 21.97C116.043 21.51 114.493 21 113.353 20.44C112.233 19.88 111.423 19.21 110.923 18.43C110.423 17.63 110.173 16.64 110.173 15.46C110.173 14.32 110.503 13.32 111.163 12.46C111.843 11.6 112.793 10.93 114.013 10.45C115.253 9.97 116.673 9.73 118.273 9.73C119.813 9.73 121.183 9.94 122.383 10.36C123.603 10.76 124.553 11.33 125.233 12.07C125.933 12.81 126.283 13.66 126.283 14.62C126.283 16.1 125.213 16.87 123.073 16.93C122.953 15.55 122.513 14.54 121.753 13.9C120.993 13.26 119.833 12.94 118.273 12.94C116.933 12.94 115.903 13.16 115.183 13.6C114.463 14.04 114.103 14.66 114.103 15.46C114.103 16.02 114.243 16.49 114.523 16.87C114.803 17.23 115.273 17.55 115.933 17.83C116.593 18.09 117.533 18.36 118.753 18.64C120.813 19.1 122.443 19.62 123.643 20.2C124.843 20.76 125.713 21.45 126.253 22.27C126.793 23.07 127.063 24.06 127.063 25.24C127.063 26.46 126.713 27.53 126.013 28.45C125.333 29.35 124.353 30.05 123.073 30.55C121.813 31.03 120.333 31.27 118.633 31.27ZM130.553 12.73C130.553 11.79 130.903 11.06 131.603 10.54C132.303 10 133.293 9.73 134.573 9.73V28.27C134.573 29.23 134.223 29.97 133.523 30.49C132.823 31.01 131.833 31.27 130.553 31.27V12.73ZM147.324 31.27C145.544 31.27 143.954 30.93 142.554 30.25C141.174 29.57 140.094 28.62 139.314 27.4C138.534 26.18 138.144 24.79 138.144 23.23V17.71C138.144 16.15 138.524 14.77 139.284 13.57C140.064 12.35 141.134 11.41 142.494 10.75C143.854 10.07 145.414 9.73 147.174 9.73C148.934 9.73 150.494 10 151.854 10.54C153.234 11.06 154.304 11.79 155.064 12.73C155.824 13.67 156.204 14.75 156.204 15.97C156.204 16.71 155.954 17.29 155.454 17.71C154.974 18.13 154.324 18.34 153.504 18.34C153.104 18.34 152.664 18.28 152.184 18.16C152.224 17.68 152.244 17.21 152.244 16.75C152.244 15.69 151.774 14.83 150.834 14.17C149.894 13.51 148.674 13.18 147.174 13.18C145.694 13.18 144.484 13.6 143.544 14.44C142.624 15.28 142.164 16.37 142.164 17.71V23.23C142.164 24.57 142.644 25.67 143.604 26.53C144.564 27.39 145.804 27.82 147.324 27.82C148.804 27.82 150.004 27.48 150.924 26.8C151.864 26.1 152.334 25.2 152.334 24.1V23.17H149.754C148.994 23.17 148.374 22.88 147.894 22.3C147.414 21.7 147.174 20.93 147.174 19.99H154.464C155.024 19.99 155.474 20.16 155.814 20.5C156.154 20.84 156.324 21.29 156.324 21.85V24.19C156.324 25.57 155.944 26.8 155.184 27.88C154.424 28.94 153.354 29.77 151.974 30.37C150.614 30.97 149.064 31.27 147.324 31.27ZM159.28 12.7C159.28 11.74 159.62 11.01 160.3 10.51C160.98 9.99 161.98 9.73 163.3 9.73V18.67H172.27V12.7C172.27 11.72 172.61 10.98 173.29 10.48C173.99 9.98 174.99 9.73 176.29 9.73V28.3C176.29 29.26 175.94 30 175.24 30.52C174.56 31.02 173.57 31.27 172.27 31.27V22.15H163.3V28.3C163.3 29.26 162.95 30 162.25 30.52C161.57 31.02 160.58 31.27 159.28 31.27V12.7ZM186.117 13.48H178.887C178.887 11.16 179.937 10 182.037 10H197.367C197.367 12.32 196.307 13.48 194.187 13.48H190.137V28.3C190.137 29.26 189.797 30 189.117 30.52C188.437 31.02 187.437 31.27 186.117 31.27V13.48Z" fill="#5CA196"/>
<defs>
<radialGradient id="paint0_radial_2048_19" cx="0" cy="0" r="1" gradientUnits="userSpaceOnUse" gradientTransform="translate(37.5 24.5) rotate(-144.462) scale(25.807 19.3552)">
<stop stop-color="#82B79E"/>
<stop offset="1" stop-color="#4B858F"/>
</radialGradient>
<radialGradient id="paint1_radial_2048_19" cx="0" cy="0" r="1" gradientUnits="userSpaceOnUse" gradientTransform="translate(26 4) rotate(138.504) scale(34.7131 47.7972)">
<stop stop-color="#82B79E"/>
<stop offset="1" stop-color="#4B858F"/>
</radialGradient>
<clipPath id="clip0_2048_19">
<rect width="24" height="18" fill="white" transform="translate(24.0305 7.604) rotate(46.3788)"/>
</clipPath>
<clipPath id="clip1_2048_19">
<rect width="28.9726" height="21.2268" fill="white" transform="translate(0 4.79895) rotate(-6.33118)"/>
</clipPath>
</defs>
</svg>
