<svg width="35" height="38" viewBox="0 0 35 38" fill="none" xmlns="http://www.w3.org/2000/svg">
<rect x="4" y="21" width="10" height="6" fill="#5E9794"/>
<path d="M5.04603 22.4569C5.02717 22.3034 5.06552 22.1639 5.16108 22.0384C5.25664 21.9128 5.37923 21.8408 5.52885 21.8224C6.51864 21.7008 7.45157 21.7344 8.32764 21.9233C9.2037 22.1122 9.99895 22.4159 10.7134 22.8344C11.4278 23.2528 12.185 23.8173 12.985 24.5278C13.1095 24.6383 13.1805 24.7643 13.1979 24.906C13.2168 25.0594 13.1784 25.1989 13.0829 25.3245C12.9873 25.4501 12.8647 25.5221 12.7151 25.5404C12.577 25.5574 12.4406 25.5173 12.306 25.42C12.1332 25.2974 11.9486 24.968 11.644 24.7238C11.3395 24.4797 10.9486 24.0527 10.8198 23.9547C9.94147 23.3197 9.22519 23.2973 8.43075 23.0834C7.63631 22.8695 6.71542 22.8269 5.66809 22.9556C5.51847 22.974 5.3821 22.9338 5.25898 22.8351C5.13587 22.7364 5.06488 22.6103 5.04603 22.4569ZM0.411107 21.2471C0.480002 21.8078 0.607532 22.3702 0.793695 22.9345C1.22086 24.224 1.8906 25.2889 2.80292 26.1294C3.71524 26.9699 4.84105 27.6343 6.18036 28.1228C7.49016 28.6088 8.78958 28.7727 10.0786 28.6143C10.9303 28.5096 11.7362 28.2698 12.4962 27.8948C12.5789 27.8547 12.8169 27.6997 13.2101 27.4297C13.6034 27.1597 13.8662 27.0166 13.9985 27.0003C14.0906 26.989 14.2159 27.0695 14.3743 27.2417C14.5327 27.4139 14.6876 27.6046 14.8389 27.8137C14.9902 28.0227 15.1666 28.2107 15.3682 28.3777C15.5698 28.5446 15.754 28.6178 15.9209 28.5973C16.1684 28.5669 16.3447 28.4928 16.45 28.375C16.5553 28.2573 16.6646 28.0656 16.778 27.8C16.7867 27.775 16.7999 27.7404 16.8179 27.6963C16.8358 27.6522 16.848 27.6207 16.8545 27.6019C16.8609 27.5832 16.8661 27.5541 16.87 27.5146C16.8739 27.4752 16.8734 27.4349 16.8683 27.3935C16.8429 27.187 16.7271 26.981 16.5207 26.7757C16.3144 26.5704 16.095 26.4012 15.8625 26.268C15.63 26.1348 15.4141 25.9936 15.2146 25.8444C15.0152 25.6952 14.9086 25.5645 14.8948 25.4523C14.8919 25.4287 14.9184 25.3116 14.9743 25.1011C15.0303 24.8905 15.0603 24.755 15.0646 24.6946C15.0794 24.3872 15.0676 24.0771 15.0291 23.7643C14.9457 23.0856 14.7408 22.4518 14.4143 21.8629C14.0879 21.2739 13.6786 20.7716 13.1864 20.3558C12.6943 19.9399 12.1533 19.59 11.5635 19.3061C10.9737 19.0221 10.3521 18.8124 9.6987 18.677C9.36914 18.6097 8.94269 18.5857 8.41933 18.605C7.89598 18.6244 7.37624 18.6613 6.86012 18.7158C6.34399 18.7702 5.82822 18.8156 5.3128 18.852C4.79738 18.8884 4.31824 18.8753 3.87538 18.8129C3.43252 18.7505 3.08546 18.6239 2.83419 18.4331L2.54746 18.2033L2.26236 17.9867L2.00754 17.8383L1.67507 17.7353L1.29469 17.7416C1.07026 17.7692 0.884095 17.9299 0.736185 18.2236C0.588275 18.5174 0.492214 18.8647 0.448005 19.2655C0.403796 19.6664 0.379705 20.0408 0.375731 20.3887C0.371757 20.7367 0.383549 21.0228 0.411107 21.2471Z" fill="url(#paint0_radial_6353_40)"/>
<rect x="8.99512" y="30.4096" width="7.64706" height="4.747" transform="rotate(-54.9368 8.99512 30.4096)" fill="#5E9794"/>
<path d="M10.3982 30.417C10.2906 30.3591 10.2171 30.2716 10.1777 30.1548C10.1384 30.0379 10.1456 29.9284 10.1995 29.8264C10.5555 29.1516 10.9871 28.583 11.4943 28.1205C12.0015 27.658 12.5475 27.2982 13.1324 27.0412C13.7172 26.7842 14.4154 26.5668 15.2269 26.389C15.3532 26.3613 15.466 26.3742 15.5654 26.4276C15.6731 26.4856 15.7466 26.573 15.7859 26.6899C15.8252 26.8068 15.818 26.9162 15.7642 27.0182C15.7145 27.1124 15.6286 27.1795 15.5064 27.2195C15.3512 27.272 15.0567 27.2378 14.7648 27.3175C14.4729 27.3971 14.0247 27.4477 13.9046 27.4838C13.1076 27.745 12.7784 28.1831 12.2909 28.5832C11.8033 28.9832 11.3712 29.5402 10.9944 30.2543C10.9406 30.3563 10.8547 30.4234 10.7367 30.4556C10.6187 30.4878 10.5059 30.4749 10.3982 30.417ZM7.57862 32.7683C7.97198 32.98 8.39224 33.1558 8.83942 33.2957C9.86213 33.6144 10.846 33.6793 11.7911 33.4902C12.7361 33.3012 13.661 32.8985 14.5657 32.2822C15.4559 31.6833 16.1328 30.9444 16.5965 30.0656C16.9029 29.4849 17.1016 28.8715 17.1927 28.2253C17.203 28.1553 17.2072 27.9359 17.2051 27.5671C17.203 27.1982 17.2258 26.9686 17.2734 26.8784C17.3065 26.8156 17.4136 26.7738 17.5948 26.7529C17.7759 26.732 17.9674 26.7218 18.1693 26.7221C18.3711 26.7224 18.5704 26.6974 18.767 26.6471C18.9637 26.5968 19.0921 26.5148 19.1521 26.401C19.2411 26.2323 19.2706 26.0882 19.2406 25.9688C19.2106 25.8494 19.1345 25.6938 19.0123 25.5021C18.9999 25.4854 18.9833 25.4613 18.9626 25.43C18.9419 25.3988 18.9269 25.3768 18.9176 25.3643C18.9083 25.3517 18.8917 25.3352 18.8679 25.3148C18.8441 25.2945 18.8177 25.2765 18.7887 25.2609C18.6438 25.1829 18.4596 25.1618 18.236 25.1976C18.0124 25.2335 17.8064 25.2939 17.618 25.3789C17.4296 25.4639 17.2433 25.5348 17.0591 25.5918C16.8748 25.6488 16.7434 25.6562 16.6647 25.6138C16.6481 25.6049 16.5839 25.5351 16.4721 25.4044C16.3603 25.2737 16.2858 25.1933 16.2486 25.1632C16.056 25.0142 15.85 24.8807 15.6306 24.7626C15.1544 24.5063 14.6539 24.3465 14.1291 24.2831C13.6043 24.2198 13.0992 24.2477 12.6137 24.3667C12.1282 24.4858 11.664 24.6653 11.221 24.9055C10.7779 25.1456 10.3691 25.4394 9.99438 25.7868C9.80599 25.9625 9.60312 26.2185 9.38575 26.5549C9.16839 26.8913 8.96396 27.2333 8.77247 27.5811C8.58099 27.9289 8.38381 28.2724 8.18094 28.6116C7.97806 28.9507 7.75914 29.2447 7.52418 29.4935C7.28921 29.7424 7.05476 29.9021 6.82083 29.9726L6.54601 30.0476L6.2805 30.1276L6.07245 30.2197L5.85973 30.381L5.69671 30.6219C5.61598 30.775 5.63824 30.9645 5.76349 31.1906C5.88875 31.4167 6.07145 31.6347 6.31161 31.8445C6.55176 32.0544 6.78364 32.2396 7.00723 32.4003C7.23082 32.5609 7.42128 32.6836 7.57862 32.7683Z" fill="url(#paint1_radial_6353_40)"/>
<path d="M20.3197 9.41431C20.5755 9.37701 20.8117 9.44586 21.0281 9.62084C21.2445 9.79583 21.3729 10.0217 21.4132 10.2985C21.6802 12.1293 21.6834 13.8572 21.423 15.4823C21.1626 17.1074 20.7047 18.5846 20.0495 19.914C19.3943 21.2433 18.4972 22.6542 17.3583 24.1464C17.1812 24.3788 16.9745 24.5122 16.7384 24.5466C16.4826 24.5839 17.8598 24.6296 17.6433 24.4546C17.4269 24.2797 19.2922 23.5705 19.2519 23.2938C19.2146 23.0383 18.7768 22.3897 18.9312 22.1389C19.1254 21.8171 18.5077 21.4671 18.5077 21.4332C18.5077 21.3994 17.7753 20.8791 17.9312 20.6389C18.9386 19.0028 19.179 17.1656 19.4866 15.6913C19.7941 14.217 19.8066 12.5112 19.5242 10.5739C19.4838 10.2971 19.5424 10.044 19.6998 9.81451C19.8573 9.58501 20.0639 9.45161 20.3197 9.41431ZM22.0499 0.813379C21.1153 0.94966 20.1813 1.19454 19.2481 1.54801C17.1156 2.35899 15.3747 3.61564 14.0252 5.31798C12.6758 7.02032 11.6348 9.11522 10.9022 11.6027C10.1718 14.0355 9.98035 16.4441 10.328 18.8285C10.5577 20.4038 11.0108 21.8922 11.6874 23.2937C11.7599 23.4462 12.0348 23.8845 12.5122 24.6084C12.9895 25.3324 14.0113 25.7877 14.047 26.0326C14.0718 26.2029 14.2919 25.178 14.0135 25.474C13.7351 25.7701 14.7014 25.677 14.3609 25.9604C14.0204 26.2438 14.6623 25.5524 14.3956 25.9283C14.1288 26.3041 14.6088 25.5702 14.6538 25.8789C14.7205 26.3366 14.9498 25.9458 15.1538 26.1389C15.3578 26.3321 15.7829 25.4873 16.2349 25.6932C18.6286 21.5783 15.7003 25.8789 15.7003 25.8789C18.4177 21.6919 16.0192 26.1567 16.0192 26.1567C16.0192 26.1567 18.0707 21.9063 16.1538 25.6389C18.3274 21.4063 16.0192 26.1567 16.0192 26.1567C16.0192 26.1567 15.6885 26.2641 16.0192 25.8789C16.3498 25.4937 14.9456 26.5715 15.1538 26.1389C15.362 25.7064 15.9858 26.1651 15.7003 25.8789C15.9375 25.5073 15.9669 25.6662 16.1538 25.6389C16.1932 25.6332 16.2976 25.0387 16.6538 25.1389C17.0101 25.2392 17.1102 27.9928 17.2117 27.9997C17.7275 28.0223 18.2461 27.9957 18.7675 27.9196C19.899 27.7546 20.9475 27.3653 21.9131 26.7517C22.8787 26.138 23.694 25.3723 24.359 24.4546C25.024 23.5369 25.5755 22.5298 26.0135 21.4332C26.4514 20.3367 26.7629 19.1825 26.948 17.9706C27.0397 17.3593 27.0526 16.5693 26.9868 15.6006C26.9209 14.6318 26.8259 13.67 26.7017 12.7152C26.5776 11.7604 26.4686 10.8061 26.3747 9.85225C26.2809 8.89845 26.2721 8.01106 26.3483 7.19008C26.4245 6.3691 26.6144 5.72451 26.9179 5.2563L27.2846 4.72181L27.6292 4.19055L27.8615 3.71641L28.0126 3.0992L27.9778 2.39498C27.9173 1.97984 27.6363 1.63763 27.1348 1.36832C26.6333 1.09901 26.0455 0.926541 25.3713 0.85091C24.6971 0.775279 24.0684 0.73649 23.4854 0.734538C22.9023 0.732586 22.4238 0.758866 22.0499 0.813379Z" fill="url(#paint2_radial_6353_40)"/>
<path d="M24.3873 6.27624C24.5078 6.25867 24.6169 6.27676 24.7147 6.33052C24.8125 6.38429 24.8681 6.45674 24.8814 6.54789C24.9693 7.15084 24.9358 7.72495 24.781 8.27022C24.6261 8.81549 24.3818 9.31562 24.0481 9.77061C23.7144 10.2256 23.2659 10.7126 22.7024 11.2315C22.6148 11.3123 22.5153 11.3608 22.4041 11.377C22.2835 11.3946 22.9274 11.3819 22.8296 11.3281C22.7318 11.2744 23.6195 11.001 23.6062 10.9098C23.594 10.8257 23.4021 10.619 23.4795 10.5326C23.5769 10.4217 23.2948 10.3179 23.2955 10.3067C23.2962 10.2954 22.9638 10.1374 23.0416 10.0544C23.5464 9.49033 23.6962 8.875 23.8701 8.37887C24.0439 7.88274 24.0843 7.31567 23.9913 6.67766C23.978 6.58651 24.0106 6.50122 24.0889 6.42177C24.1673 6.34232 24.2667 6.29381 24.3873 6.27624ZM25.3715 3.38323C24.9311 3.44744 24.4889 3.54772 24.0448 3.68407C23.0299 3.99673 22.1894 4.44955 21.5231 5.04254C20.8568 5.63553 20.327 6.35271 19.9336 7.1941C19.5423 8.01729 19.4039 8.8215 19.5184 9.60675C19.5941 10.1256 19.7761 10.611 20.0645 11.063C20.0954 11.1122 20.2152 11.2522 20.424 11.4831C20.6329 11.714 21.1021 11.8446 21.1138 11.9253C21.122 11.9814 21.2458 11.6363 21.1094 11.7404C20.9731 11.8444 21.4274 11.7939 21.2623 11.8949C21.0971 11.996 21.4116 11.7533 21.2791 11.8836C21.1466 12.0139 21.3862 11.7603 21.4011 11.8619C21.423 12.0127 21.5383 11.8782 21.6299 11.9382C21.7215 11.9982 21.9376 11.7089 22.1451 11.7682C23.3492 10.3524 21.891 11.8407 21.891 11.8407C23.2481 10.3944 22.0347 11.9266 22.0347 11.9266C22.0347 11.9266 23.0813 10.4727 22.1082 11.7518C23.2116 10.3013 22.0347 11.9266 22.0347 11.9266C22.0347 11.9266 21.8777 11.969 22.0403 11.8343C22.2029 11.6996 21.5236 12.0862 21.6299 11.9382C21.7361 11.7903 22.0189 11.93 21.891 11.8407C22.0096 11.7125 22.0201 11.7647 22.1082 11.7518C22.1268 11.7491 22.1877 11.5495 22.3525 11.5756C22.5172 11.6017 22.5084 12.5146 22.5557 12.5149C22.7968 12.5119 23.0401 12.4926 23.2858 12.4567C23.8189 12.379 24.3177 12.2284 24.7822 12.005C25.2468 11.7815 25.644 11.5106 25.9739 11.1922C26.3039 10.8738 26.5825 10.5279 26.8098 10.1547C27.037 9.78144 27.2062 9.3916 27.3174 8.98516C27.3727 8.78019 27.3948 8.51742 27.3836 8.19685C27.3723 7.87628 27.3473 7.55862 27.3085 7.24385C27.2697 6.92909 27.238 6.6142 27.2134 6.29916C27.1888 5.98412 27.2026 5.68943 27.2549 5.41509C27.3072 5.14074 27.4092 4.92271 27.5608 4.76099L27.7433 4.57596L27.9154 4.39245L28.0337 4.2302L28.117 4.02204L28.115 3.78874C28.095 3.65203 27.9704 3.544 27.741 3.46467C27.5117 3.38534 27.24 3.33993 26.9258 3.32845C26.6117 3.31697 26.3182 3.31681 26.0452 3.32797C25.7722 3.33913 25.5477 3.35755 25.3715 3.38323Z" fill="url(#paint3_radial_6353_40)"/>
<path d="M26.3806 13.6721C26.5457 13.675 26.3819 14.3559 26.5 14.5C26.6181 14.6441 26.4453 14.3601 26.4418 14.5542C26.4188 15.8387 26.7758 16.8689 26.4418 17.9536C26.1079 19.0382 25.665 19.9995 25.1131 20.8375C24.5612 21.6754 23.8484 22.5422 22.9746 23.4379C22.8387 23.5774 22.6946 23.6458 22.5421 23.643C22.377 23.6401 23.2402 23.825 23.1221 23.6809C23.004 23.5369 24.2537 23.2589 24.2572 23.0647C24.2604 22.8855 24.0522 22.3922 24.1757 22.2376C24.3318 22.0387 23.9791 21.7299 23.9826 21.7067C23.9861 21.6835 23.5789 21.2453 23.7022 21.0981C24.5081 20.0891 24.8517 18.8569 25.1996 17.8808C25.5475 16.9048 25.7336 15.7372 25.758 14.378C25.7615 14.1839 25.8249 14.0169 25.9481 13.8772C26.0713 13.7375 26.2155 13.6691 26.3806 13.6721ZM28.3699 7.97071C27.7666 7.95987 27.1524 8.02353 26.5273 8.1617C25.0985 8.47966 23.8699 9.1467 22.8416 10.1628C21.8132 11.179 20.9382 12.4986 20.2166 14.1216C19.5019 15.7073 19.1296 17.3366 19.0995 19.0094C19.0797 20.1146 19.2097 21.1852 19.4897 22.2211C19.5194 22.3337 19.6469 22.6647 19.8721 23.2141C20.0973 23.7634 20.6937 24.1894 20.6906 24.3612C20.6885 24.4807 20.9342 23.8029 20.7279 23.9747C20.5215 24.1465 21.1402 24.1905 20.896 24.3468C20.6518 24.503 21.1286 24.1007 20.9212 24.3286C20.7138 24.5564 21.093 24.107 21.0891 24.3236C21.0833 24.6447 21.2687 24.4025 21.3771 24.5575C21.4854 24.7126 21.8416 24.1811 22.105 24.3726C24.0436 21.8196 21.7487 24.4403 21.7487 24.4403C23.8989 21.874 21.9206 24.6662 21.9206 24.6662C21.9206 24.6662 23.6577 21.9821 22.0596 24.3264C23.8718 21.6681 21.9206 24.6662 21.9206 24.6662C21.9206 24.6662 21.7009 24.7029 21.9496 24.4758C22.1983 24.2487 21.2006 24.8308 21.3771 24.5575C21.5535 24.2843 21.8987 24.6682 21.7487 24.4403C21.937 24.2121 21.9389 24.3242 22.0596 24.3264C22.085 24.3269 22.2129 23.9311 22.4269 24.0395C22.641 24.1479 22.4164 26.0462 22.4796 26.0623C22.8023 26.1353 23.1319 26.1748 23.4685 26.1809C24.1989 26.194 24.9004 26.0441 25.5731 25.7313C26.2457 25.4184 26.8396 24.9846 27.3546 24.4298C27.8697 23.8751 28.3225 23.2464 28.7131 22.5438C29.1037 21.8411 29.4207 21.0848 29.6639 20.275C29.7856 19.8663 29.8763 19.3263 29.936 18.6551C29.9958 17.9838 30.0364 17.3141 30.0579 16.6459C30.0795 15.9777 30.1105 15.3116 30.151 14.6475C30.1915 13.9833 30.2787 13.3742 30.4126 12.8201C30.5464 12.266 30.7334 11.8454 30.9736 11.5584L31.2606 11.233L31.5333 10.9073L31.7292 10.6083L31.889 10.2022L31.9406 9.71568C31.9459 9.42443 31.8045 9.15857 31.5166 8.91808C31.2287 8.6776 30.8762 8.49385 30.4592 8.36683C30.0422 8.23981 29.6501 8.14312 29.2828 8.07676C28.9155 8.0104 28.6112 7.97505 28.3699 7.97071Z" fill="url(#paint4_radial_6353_40)"/>
<path d="M15.4831 7.96721C15.2912 7.97066 15.1264 8.0456 14.9887 8.19204C14.851 8.33847 14.7839 8.51016 14.7875 8.70709C14.8109 10.0099 15.0153 11.2109 15.4006 12.3102C15.7859 13.4095 16.2982 14.3834 16.9374 15.2319C17.5767 16.0804 18.403 16.9577 19.4162 17.8639C19.5739 18.005 19.7413 18.074 19.9184 18.0708C20.1104 18.0674 19.1065 18.2572 19.2442 18.1108C19.3819 17.9644 17.93 17.6857 17.9264 17.4888C17.9232 17.307 18.1664 16.8061 18.0233 16.6496C17.8424 16.4482 18.2532 16.1341 18.2492 16.1106C18.2451 16.0871 18.7197 15.6414 18.5767 15.4925C17.6426 14.4712 17.2466 13.2223 16.8448 12.2331C16.443 11.244 16.2297 10.0602 16.2049 8.68162C16.2014 8.48469 16.1282 8.31552 15.9853 8.17413C15.8425 8.03274 15.6751 7.96376 15.4831 7.96721ZM13.186 2.18946C13.8873 2.17685 14.6011 2.2398 15.3273 2.37828C16.9873 2.69699 18.4136 3.37032 19.6063 4.39828C20.7989 5.42625 21.8125 6.76239 22.647 8.40673C23.4735 10.0133 23.902 11.665 23.9325 13.3616C23.9526 14.4827 23.7986 15.5689 23.4704 16.6204C23.4355 16.7347 23.2865 17.0708 23.0232 17.6286C22.76 18.1864 22.0656 18.6201 22.0687 18.7944C22.0709 18.9155 21.787 18.2287 22.0265 18.4024C22.2659 18.5762 21.5466 18.6224 21.8301 18.7802C22.1135 18.9381 21.5603 18.5313 21.8008 18.7619C22.0413 18.9925 21.6017 18.5376 21.6056 18.7572C21.6115 19.0829 21.3967 18.8377 21.2703 18.9953C21.1439 19.1529 20.7313 18.6148 20.4246 18.8097C18.1779 16.2253 20.8387 18.8774 20.8387 18.8774C18.3461 16.28 20.6382 19.107 20.6382 19.107C20.6382 19.107 18.6261 16.3891 20.4776 18.7627C18.3781 16.0711 20.6382 19.107 20.6382 19.107C20.6382 19.107 20.8934 19.1437 20.605 18.914C20.3165 18.6843 21.4747 19.272 21.2703 18.9953C21.0659 18.7187 20.6637 19.109 20.8387 18.8774C20.6203 18.6464 20.6178 18.7602 20.4776 18.7627C20.448 18.7632 20.3004 18.3621 20.0513 18.4727C19.8022 18.5832 20.0582 20.5081 19.9847 20.5245C19.6094 20.5995 19.2261 20.6405 18.8348 20.6475C17.9859 20.6627 17.1708 20.5126 16.3897 20.197C15.6086 19.8815 14.9195 19.443 14.3223 18.8817C13.7251 18.3204 13.2004 17.6839 12.7482 16.9722C12.296 16.2605 11.9296 15.4943 11.649 14.6735C11.5086 14.2592 11.4047 13.7118 11.337 13.0311C11.2694 12.3504 11.224 11.6712 11.2007 10.9935C11.1775 10.3158 11.1432 9.64014 11.0978 8.96661C11.0525 8.29308 10.9528 7.67547 10.7987 7.11376C10.6446 6.55205 10.4283 6.12595 10.1498 5.83546L9.81712 5.50616L9.50103 5.17657L9.27404 4.87378L9.08941 4.46227L9.03069 3.96893C9.02538 3.67353 9.19039 3.40348 9.5257 3.15878C9.86101 2.91408 10.2712 2.72676 10.7563 2.59681C11.2413 2.46687 11.6974 2.36775 12.1245 2.29946C12.5516 2.23117 12.9054 2.1945 13.186 2.18946Z" fill="url(#paint5_radial_6353_40)"/>
<path d="M14.6527 15.619C14.3954 15.6236 14.1741 15.699 13.9886 15.8452C13.8032 15.9914 13.7122 16.1622 13.7157 16.3576C13.739 17.6504 14.0053 18.8411 14.5148 19.9297C15.0244 21.0183 15.7048 21.9816 16.5563 22.8197C17.4077 23.6578 18.5095 24.5233 19.8618 25.4163C20.0721 25.5554 20.2961 25.6228 20.5335 25.6185C20.7908 25.6139 19.4443 25.8086 19.6297 25.6624C19.8151 25.5162 17.871 25.2488 17.8675 25.0534C17.8643 24.873 18.1934 24.3743 18.0026 24.2199C17.7615 24.0212 18.314 23.7069 18.3087 23.6836C18.3034 23.6603 18.9422 23.215 18.7515 23.0681C17.5061 22.0604 16.9831 20.8233 16.4508 19.8442C15.9185 18.865 15.6401 17.6915 15.6155 16.3235C15.612 16.128 15.515 15.9606 15.3244 15.8212C15.1338 15.6818 14.9099 15.6144 14.6527 15.619ZM11.6102 9.89922C12.5502 9.88232 13.5064 9.94033 14.4788 10.0732C16.7014 10.3792 18.6087 11.0385 20.2006 12.0512C21.7926 13.064 23.1426 14.3837 24.2507 16.0104C25.3482 17.5997 25.9121 19.2362 25.9424 20.9198C25.9624 22.0323 25.7492 23.1113 25.3028 24.1569C25.2553 24.2705 25.0535 24.605 24.6972 25.1603C24.341 25.7155 23.4077 26.1503 23.4108 26.3232C23.4129 26.4434 23.0368 25.7635 23.3566 25.9345C23.6764 26.1054 22.7121 26.1558 23.091 26.3107C23.4699 26.4655 22.7311 26.0653 23.0519 26.2926C23.3727 26.5199 22.7864 26.0713 22.7904 26.2892C22.7962 26.6124 22.5098 26.3704 22.3395 26.5276C22.1691 26.6848 21.6195 26.1533 21.2073 26.3487C18.2125 23.7978 21.7617 26.4133 21.7617 26.4133C18.4375 23.8511 21.4917 26.6424 21.4917 26.6424C21.4917 26.6424 18.8121 23.9576 21.2785 26.3017C18.4817 23.6436 21.4917 26.6424 21.4917 26.6424C21.4917 26.6424 21.8335 26.6772 21.4483 26.451C21.0632 26.2249 22.6116 26.8009 22.3395 26.5276C22.0673 26.2543 21.5258 26.6442 21.7617 26.4133C21.4706 26.1854 21.4665 26.2983 21.2785 26.3017C21.239 26.3024 21.0436 25.9053 20.7091 26.0165C20.3745 26.1278 20.7057 28.0365 20.607 28.0533C20.1036 28.13 19.5896 28.1731 19.0652 28.1825C17.9273 28.203 16.836 28.0591 15.7912 27.7508C14.7464 27.4425 13.8255 27.0117 13.0287 26.4583C12.2319 25.905 11.5327 25.2765 10.9311 24.5731C10.3296 23.8696 9.84333 23.1114 9.4724 22.2985C9.28687 21.8883 9.15092 21.3457 9.06455 20.6705C8.97818 19.9954 8.92153 19.3216 8.8946 18.6491C8.86767 17.9767 8.82593 17.3064 8.76938 16.6382C8.71283 15.9701 8.58306 15.3578 8.38005 14.8012C8.17704 14.2447 7.88985 13.8232 7.51848 13.5367L7.07466 13.2119L6.65311 12.8868L6.3508 12.5877L6.10593 12.1805L6.03033 11.6912C6.02506 11.3981 6.24788 11.129 6.69878 10.8841C7.14968 10.6392 7.70057 10.4507 8.35145 10.3187C9.00234 10.1867 9.61419 10.0855 10.187 10.015C10.7598 9.94458 11.2342 9.90597 11.6102 9.89922Z" fill="url(#paint6_radial_6353_40)"/>
<rect width="12.3529" height="6.83534" transform="matrix(-1 0 0 1 30.0586 22.6961)" fill="#5E9794"/>
<path d="M28.7666 24.3558C28.7899 24.181 28.7425 24.0221 28.6245 23.879C28.5064 23.736 28.355 23.654 28.1702 23.633C26.9475 23.4945 25.7951 23.5328 24.7129 23.748C23.6307 23.9632 22.6483 24.3092 21.7658 24.7859C20.8832 25.2626 19.9479 25.9056 18.9597 26.715C18.8058 26.8409 18.7181 26.9845 18.6966 27.1459C18.6733 27.3207 18.7207 27.4796 18.8387 27.6227C18.9568 27.7657 19.1082 27.8477 19.293 27.8687C19.4637 27.888 19.6321 27.8423 19.7984 27.7314C20.0118 27.5918 20.2399 27.2165 20.6161 26.9384C20.9924 26.6602 21.4751 26.1738 21.6343 26.0621C22.7193 25.3388 23.6041 25.3133 24.5855 25.0696C25.5669 24.8259 26.7044 24.7773 27.9982 24.924C28.183 24.9449 28.3515 24.8991 28.5036 24.7867C28.6556 24.6743 28.7433 24.5306 28.7666 24.3558ZM34.4921 22.9776C34.407 23.6163 34.2495 24.2571 34.0195 24.8999C33.4918 26.3689 32.6645 27.5822 31.5375 28.5396C30.4105 29.4971 29.0198 30.2541 27.3654 30.8105C25.7474 31.3643 24.1422 31.5509 22.5499 31.3705C21.4978 31.2512 20.5023 30.978 19.5635 30.5509C19.4613 30.5052 19.1673 30.3285 18.6816 30.021C18.1958 29.7134 17.8711 29.5503 17.7076 29.5318C17.5939 29.5189 17.4392 29.6106 17.2434 29.8068C17.0477 30.003 16.8564 30.2202 16.6696 30.4584C16.4827 30.6966 16.2647 30.9107 16.0157 31.1009C15.7667 31.2911 15.5391 31.3745 15.3329 31.3512C15.0272 31.3165 14.8094 31.2321 14.6793 31.0979C14.5493 30.9638 14.4142 30.7454 14.2741 30.4429C14.2635 30.4144 14.2471 30.375 14.2249 30.3247C14.2028 30.2744 14.1877 30.2386 14.1797 30.2172C14.1717 30.1958 14.1653 30.1627 14.1605 30.1178C14.1557 30.0728 14.1564 30.0269 14.1626 29.9798C14.194 29.7445 14.3371 29.5099 14.592 29.276C14.8468 29.0421 15.1178 28.8493 15.4051 28.6976C15.6923 28.5458 15.959 28.385 16.2054 28.2149C16.4517 28.0449 16.5834 27.8961 16.6004 27.7683C16.604 27.7414 16.5713 27.608 16.5022 27.3682C16.4332 27.1283 16.396 26.9739 16.3907 26.9051C16.3725 26.5549 16.387 26.2017 16.4345 25.8453C16.5376 25.0721 16.7907 24.35 17.194 23.6791C17.5973 23.0082 18.1029 22.4359 18.7108 21.9622C19.3187 21.4885 19.987 21.0899 20.7156 20.7663C21.4443 20.4428 22.2121 20.2039 23.0192 20.0497C23.4263 19.973 23.9531 19.9457 24.5996 19.9677C25.2461 19.9898 25.8881 20.0318 26.5257 20.0939C27.1632 20.1559 27.8004 20.2076 28.4371 20.249C29.0738 20.2905 29.6657 20.2757 30.2127 20.2046C30.7598 20.1335 31.1885 19.9892 31.4989 19.7719L31.8531 19.51L32.2053 19.2633L32.52 19.0942L32.9307 18.9769L33.4006 18.9841C33.6779 19.0155 33.9078 19.1986 34.0905 19.5332C34.2733 19.8679 34.3919 20.2635 34.4465 20.7202C34.5011 21.1768 34.5309 21.6033 34.5358 21.9998C34.5407 22.3962 34.5261 22.7221 34.4921 22.9776Z" fill="url(#paint7_radial_6353_40)"/>
<defs>
<radialGradient id="paint0_radial_6353_40" cx="0" cy="0" r="1" gradientTransform="matrix(16.6394 10.0016 11.8767 -25.0029 1.74801 18.935)" gradientUnits="userSpaceOnUse">
<stop stop-color="#82B79E"/>
<stop offset="1" stop-color="#4B858F"/>
</radialGradient>
<radialGradient id="paint1_radial_6353_40" cx="0" cy="0" r="1" gradientTransform="matrix(13.7867 -5.86922 -10.974 -18.798 6.66868 30.8806)" gradientUnits="userSpaceOnUse">
<stop stop-color="#82B79E"/>
<stop offset="1" stop-color="#4B858F"/>
</radialGradient>
<radialGradient id="paint2_radial_6353_40" cx="0" cy="0" r="1" gradientUnits="userSpaceOnUse" gradientTransform="translate(24.3914 3.97363) rotate(115.927) scale(27.6905 38.1277)">
<stop stop-color="#8299B7"/>
<stop offset="1" stop-color="#514B8F"/>
</radialGradient>
<radialGradient id="paint3_radial_6353_40" cx="0" cy="0" r="1" gradientTransform="matrix(-6.17295 8.52023 15.7173 4.84512 26.4038 4.38593)" gradientUnits="userSpaceOnUse">
<stop stop-color="#8299B7"/>
<stop offset="1" stop-color="#514B8F"/>
</radialGradient>
<radialGradient id="paint4_radial_6353_40" cx="0" cy="0" r="1" gradientTransform="matrix(-10.233 15.7164 19.8692 15.2486 29.5153 10.3976)" gradientUnits="userSpaceOnUse">
<stop stop-color="#8299B7"/>
<stop offset="1" stop-color="#514B8F"/>
</radialGradient>
<radialGradient id="paint5_radial_6353_40" cx="0" cy="0" r="1" gradientTransform="matrix(11.853 15.9143 -23.1366 15.52 11.8481 4.65415)" gradientUnits="userSpaceOnUse">
<stop stop-color="#8299B7"/>
<stop offset="1" stop-color="#514B8F"/>
</radialGradient>
<radialGradient id="paint6_radial_6353_40" cx="0" cy="0" r="1" gradientTransform="matrix(15.7855 15.7201 -31.1038 15.5474 9.80176 12.3537)" gradientUnits="userSpaceOnUse">
<stop stop-color="#8299B7"/>
<stop offset="1" stop-color="#514B8F"/>
</radialGradient>
<radialGradient id="paint7_radial_6353_40" cx="0" cy="0" r="1" gradientTransform="matrix(-20.5546 11.3941 -14.6712 -28.4839 32.8406 20.3437)" gradientUnits="userSpaceOnUse">
<stop stop-color="#82B79E"/>
<stop offset="1" stop-color="#4B858F"/>
</radialGradient>
</defs>
</svg>
