<svg width="41" height="44" viewBox="0 0 41 44" fill="none" xmlns="http://www.w3.org/2000/svg">
<rect x="3" y="22" width="12" height="6" fill="#5E9794"/>
<path d="M6.14353 24.2845C6.16042 24.0858 6.24101 23.9194 6.38528 23.7854C6.52956 23.6514 6.69196 23.5921 6.8725 23.6074C8.06683 23.7089 9.15481 23.992 10.1364 24.4565C11.1181 24.921 11.9755 25.5097 12.7087 26.2225C13.4419 26.9354 14.1883 27.8437 14.9477 28.9476C15.066 29.1193 15.1173 29.2969 15.1017 29.4804C15.0849 29.6791 15.0043 29.8455 14.86 29.9795C14.7157 30.1135 14.5533 30.1728 14.3728 30.1575C14.2061 30.1433 14.0561 30.0574 13.9226 29.8998C13.7507 29.7004 13.5168 29.4072 13.221 29.0203C12.9252 28.6333 12.714 28.3613 12.5875 28.2042C11.7168 27.1756 10.8417 26.4238 9.9624 25.9487C9.08308 25.4736 8.01153 25.1824 6.74777 25.075C6.56723 25.0596 6.41717 24.9737 6.29758 24.8173C6.17799 24.6608 6.12664 24.4833 6.14353 24.2845ZM1.00367 21.5612C0.941954 22.2873 0.948699 23.0308 1.02391 23.7916C1.1978 25.5309 1.71395 27.0491 2.57237 28.3461C3.43078 29.6432 4.58493 30.7729 6.0348 31.7353C7.4506 32.6871 8.9362 33.2291 10.4916 33.3613C11.5193 33.4486 12.5275 33.3534 13.5163 33.0756C13.6237 33.0462 13.9429 32.9117 14.4738 32.672C15.0047 32.4322 15.35 32.3192 15.5097 32.3327C15.6208 32.3422 15.7476 32.4761 15.89 32.7346C16.0324 32.9931 16.1659 33.2739 16.2905 33.577C16.4151 33.8801 16.5746 34.1631 16.7691 34.426C16.9635 34.6889 17.1615 34.8289 17.3628 34.846C17.6614 34.8714 17.8876 34.8233 18.0413 34.7016C18.195 34.5799 18.3723 34.366 18.5732 34.0597C18.5897 34.0303 18.6141 33.9901 18.6464 33.9389C18.6787 33.8878 18.7011 33.8512 18.7134 33.8291C18.7258 33.8071 18.7393 33.7717 18.7539 33.7229C18.7686 33.6741 18.7782 33.6229 18.7827 33.5694C18.8054 33.3019 18.7217 33.0118 18.5314 32.6993C18.3412 32.3867 18.1264 32.1163 17.887 31.8881C17.6476 31.6599 17.4297 31.4258 17.2333 31.1859C17.0369 30.9459 16.9449 30.7533 16.9572 30.6081C16.9598 30.5775 17.0208 30.4364 17.1401 30.1848C17.2594 29.9332 17.3292 29.7698 17.3496 29.6945C17.4452 29.31 17.5102 28.9152 17.5447 28.5101C17.6194 27.6311 17.5398 26.7775 17.306 25.9493C17.0721 25.121 16.7189 24.3808 16.2463 23.7286C15.7737 23.0764 15.2269 22.4949 14.6059 21.984C13.9849 21.4732 13.3076 21.048 12.5742 20.7085C12.2039 20.5384 11.7088 20.3982 11.0887 20.2878C10.4687 20.1773 9.8484 20.09 9.22791 20.0257C8.60741 19.9614 7.98963 19.8858 7.37456 19.7989C6.75949 19.7119 6.19963 19.572 5.69499 19.3789C5.19035 19.1859 4.81464 18.9365 4.56787 18.6307L4.28936 18.2663L4.00938 17.9192L3.74765 17.666L3.38307 17.4502L2.93437 17.3601C2.66357 17.3371 2.40386 17.4921 2.15525 17.8251C1.90663 18.1581 1.70534 18.5721 1.55136 19.0672C1.39738 19.5622 1.27378 20.029 1.18055 20.4676C1.08732 20.9062 1.02836 21.2707 1.00367 21.5612Z" fill="url(#paint0_radial_6110_3502)"/>
<path d="M14.6791 12.7519C14.4233 12.7146 14.1872 12.7834 13.9707 12.9584C13.7543 13.1334 13.6259 13.3593 13.5856 13.636C13.3186 15.4668 13.3154 17.1948 13.5758 18.8199C13.8362 20.445 14.2941 21.9222 14.9493 23.2515C15.6045 24.5809 16.5016 25.9917 17.6405 27.484C17.8177 27.7164 18.0243 27.8497 18.2604 27.8842C18.5162 27.9215 18.7523 27.8526 18.9688 27.6776C19.1852 27.5027 19.3136 27.2768 19.3539 27C19.3912 26.7446 19.3326 26.4914 19.1783 26.2407C18.9841 25.9188 18.6922 25.4741 18.3027 24.9064C17.9132 24.3386 17.6405 23.9347 17.4846 23.6946C16.4772 22.0584 15.8198 20.5032 15.5122 19.0288C15.2047 17.5545 15.1922 15.8487 15.4746 13.9114C15.515 13.6347 15.4564 13.3816 15.299 13.1521C15.1415 12.9226 14.9349 12.7892 14.6791 12.7519ZM12.9489 4.15094C13.8836 4.28723 14.8175 4.5321 15.7507 4.88558C17.8832 5.69655 19.6242 6.95321 20.9736 8.65554C22.323 10.3579 23.364 12.4528 24.0966 14.9403C24.827 17.3731 25.0185 19.7817 24.6708 22.166C24.4411 23.7414 23.988 25.2298 23.3114 26.6313C23.2389 26.7838 22.964 27.222 22.4867 27.946C22.0093 28.6699 21.7528 29.1543 21.7171 29.3991C21.6923 29.5695 21.8191 29.8026 22.0974 30.0987C22.3758 30.3947 22.6852 30.6844 23.0257 30.9678C21.7227 31.5 23.6699 31.5808 23.9366 31.9567C24.2033 32.3326 24.3142 32.6748 24.2692 32.9835C24.2025 33.4412 24.0671 33.7666 23.8631 33.9597C23.6591 34.1528 23.3311 34.3523 22.8791 34.5582C22.8366 34.5737 22.7778 34.5978 22.7027 34.6303C22.6277 34.6628 22.5742 34.6849 22.5424 34.6966C22.5105 34.7083 22.4615 34.7174 22.3952 34.7241C22.3289 34.7307 22.2613 34.729 22.1924 34.719C21.8481 34.6688 21.5106 34.4511 21.1799 34.0658C20.8492 33.6806 23.234 32.3892 23.0257 31.9567C22.8175 31.5241 19.9406 32.0045 19.7033 31.633C19.4661 31.2614 19.2541 31.062 19.0671 31.0347C19.0278 31.029 18.83 31.0762 18.4737 31.1765C18.1175 31.2767 17.8886 31.3303 17.7871 31.3373C17.2713 31.3599 16.7527 31.3332 16.2313 31.2572C15.0998 31.0922 14.0513 30.7029 13.0857 30.0892C12.1201 29.4756 11.3048 28.7099 10.6398 27.7922C9.97481 26.8745 9.42332 25.8674 8.98534 24.7708C8.54737 23.6742 8.23586 22.52 8.05083 21.3081C7.95909 20.6969 7.94616 19.9069 8.01205 18.9381C8.07794 17.9694 8.17295 17.0076 8.29709 16.0527C8.42124 15.0979 8.53024 14.1436 8.62409 13.1898C8.71794 12.236 8.72675 11.3486 8.65051 10.5276C8.57428 9.70666 8.3844 9.06207 8.08089 8.59386L7.7142 8.05937L7.36964 7.52811L7.13733 7.05397L6.98617 6.43677L7.02102 5.73254C7.08155 5.31741 7.36255 4.97519 7.86403 4.70588C8.3655 4.43657 8.95334 4.2641 9.62754 4.18848C10.3017 4.11285 10.9304 4.07405 11.5134 4.0721C12.0965 4.07015 12.575 4.09643 12.9489 4.15094Z" fill="url(#paint1_radial_6110_3502)"/>
<g clip-path="url(#clip0_6110_3502)">
<path d="M21.3886 14.2753C21.6444 14.238 21.8805 14.3069 22.0969 14.4819C22.3134 14.6569 22.4417 14.8827 22.4821 15.1595C22.749 16.9903 22.7523 18.7183 22.4919 20.3434C22.2314 21.9684 21.7736 23.4457 21.1183 24.775C20.4631 26.1044 19.566 27.5152 18.4271 29.0075C18.25 29.2398 18.0434 29.3732 17.8072 29.4077C17.5514 29.445 18.9286 29.4907 18.7122 29.3157C18.4958 29.1407 20.3611 28.4315 20.3207 28.1548C20.2835 27.8993 19.8457 27.2508 20 27C20.1942 26.6781 19.5766 26.3281 19.5766 26.2943C19.5766 26.2605 18.8441 25.7401 19 25.5C20.0074 23.8638 20.2479 22.0266 20.5554 20.5523C20.863 19.078 20.8755 17.3722 20.593 15.4349C20.5527 15.1582 20.6112 14.905 20.7687 14.6755C20.9261 14.446 21.1328 14.3126 21.3886 14.2753ZM23.1188 5.6744C22.1841 5.81068 21.2502 6.05556 20.317 6.40903C18.1845 7.22001 16.4435 8.47666 15.0941 10.179C13.7446 11.8813 12.7036 13.9762 11.9711 16.4637C11.2406 18.8966 11.0492 21.3051 11.3968 23.6895C11.6265 25.2648 12.0797 26.7533 12.7563 28.1548C12.8288 28.3073 13.1037 28.7455 13.581 29.4695C14.0583 30.1934 15.0802 30.6488 15.1159 30.8936C15.1407 31.0639 15.3607 30.039 15.0823 30.335C14.804 30.6311 15.7703 30.538 15.4298 30.8214C15.0892 31.1048 15.7311 30.4134 15.4644 30.7893C15.1977 31.1652 15.6776 30.4312 15.7227 30.7399C15.7894 31.1976 16.0187 30.8069 16.2227 31C16.4267 31.1931 16.8517 30.3483 17.3037 30.5542C19.6975 26.4394 16.7692 30.7399 16.7692 30.7399C19.4866 26.553 17.088 31.0177 17.088 31.0177C17.088 31.0177 19.1395 26.7673 17.2227 30.5C19.3963 26.2673 17.088 31.0177 17.088 31.0177C17.088 31.0177 16.7573 31.1251 17.088 30.7399C17.4187 30.3547 16.0144 31.4325 16.2227 31C16.4309 30.5674 17.0546 31.0261 16.7692 30.7399C17.0064 30.3683 17.0357 30.5272 17.2227 30.5C17.262 30.4942 17.3664 29.8997 17.7227 30C18.0789 30.1002 18.1791 32.8538 18.2806 32.8607C18.7963 32.8834 19.3149 32.8567 19.8364 32.7806C20.9679 32.6157 22.0164 32.2264 22.9819 31.6127C23.9475 30.999 24.7628 30.2334 25.4278 29.3157C26.0928 28.398 26.6443 27.3908 27.0823 26.2943C27.5203 25.1977 27.8318 24.0435 28.0168 22.8316C28.1086 22.2203 28.1215 21.4303 28.0556 20.4616C27.9897 19.4928 27.8947 18.531 27.7706 17.5762C27.6464 16.6214 27.5374 15.6671 27.4436 14.7133C27.3497 13.7595 27.3409 12.8721 27.4171 12.0511C27.4934 11.2301 27.6833 10.5855 27.9868 10.1173L28.3535 9.58283L28.698 9.05157L28.9303 8.57743L29.0815 7.96023L29.0466 7.256C28.9861 6.84087 28.7051 6.49865 28.2036 6.22934C27.7022 5.96003 27.1143 5.78756 26.4401 5.71193C25.7659 5.6363 25.1373 5.59751 24.5542 5.59556C23.9711 5.59361 23.4927 5.61989 23.1188 5.6744Z" fill="url(#paint2_radial_6110_3502)"/>
</g>
<rect x="18" y="28" width="12" height="6" fill="#5E9794"/>
<path d="M29.3387 29.3782C29.3633 29.1785 29.3145 28.997 29.1923 28.8338C29.0701 28.6706 28.9131 28.5772 28.7214 28.5537C27.4528 28.3978 26.2568 28.4439 25.1333 28.6919C24.0098 28.9399 22.9896 29.337 22.0728 29.8834C21.1559 30.4298 20.1839 31.1663 19.1566 32.093C18.9967 32.2371 18.9054 32.4013 18.8827 32.5857C18.8582 32.7855 18.907 32.967 19.0292 33.1302C19.1514 33.2934 19.3084 33.3868 19.5001 33.4103C19.6771 33.4321 19.852 33.3795 20.0248 33.2525C20.2466 33.0926 20.4841 32.6633 20.8751 32.3448C21.2661 32.0263 21.7682 31.4696 21.9336 31.3418C23.0611 30.5132 23.9794 30.4823 24.9983 30.2019C26.0172 29.9216 27.1978 29.8639 28.5401 30.0288C28.7318 30.0524 28.9068 29.9998 29.0648 29.871C29.2229 29.7423 29.3142 29.578 29.3387 29.3782ZM35.2833 27.7924C35.1936 28.5223 35.0287 29.2546 34.7887 29.9894C34.238 31.6688 33.3768 33.0565 32.2052 34.1526C31.0337 35.2487 29.5888 36.1163 27.8708 36.7552C26.1905 37.3911 24.5244 37.6075 22.8724 37.4045C21.7808 37.2704 20.7484 36.9602 19.775 36.4741C19.6691 36.4221 19.3644 36.2208 18.8609 35.8704C18.3575 35.52 18.0209 35.3343 17.8513 35.3135C17.7333 35.299 17.5725 35.404 17.369 35.6286C17.1655 35.8531 16.9665 36.1017 16.772 36.3741C16.5776 36.6466 16.351 36.8917 16.0921 37.1095C15.8333 37.3273 15.5969 37.423 15.383 37.3967C15.0659 37.3578 14.84 37.2618 14.7053 37.1087C14.5707 36.9557 14.431 36.7065 14.2862 36.3612C14.2753 36.3286 14.2583 36.2836 14.2355 36.2262C14.2126 36.1688 14.197 36.1279 14.1888 36.1035C14.1805 36.0791 14.174 36.0412 14.169 35.9899C14.1641 35.9386 14.1649 35.8861 14.1716 35.8323C14.2046 35.5634 14.3536 35.2951 14.6186 35.0274C14.8836 34.7597 15.1652 34.5389 15.4636 34.365C15.762 34.191 16.0392 34.0067 16.2952 33.812C16.5512 33.6173 16.6882 33.4469 16.7061 33.301C16.7099 33.2702 16.6762 33.1179 16.605 32.844C16.5339 32.5701 16.4957 32.3938 16.4903 32.3152C16.4721 31.9152 16.488 31.5116 16.5381 31.1044C16.6466 30.2208 16.9109 29.3954 17.3308 28.628C17.7508 27.8607 18.2767 27.2059 18.9086 26.6635C19.5405 26.1211 20.2348 25.6644 20.9916 25.2933C21.7484 24.9223 22.5458 24.6479 23.3837 24.47C23.8063 24.3816 24.353 24.3493 25.0239 24.3733C25.6947 24.3972 26.3609 24.444 27.0224 24.5136C27.6839 24.5831 28.3449 24.641 29.0056 24.6871C29.6662 24.7331 30.2805 24.715 30.8483 24.6327C31.4162 24.5504 31.8614 24.3848 32.184 24.1359L32.5521 23.836L32.9181 23.5534L33.2451 23.3596L33.6716 23.2248L34.1592 23.2321C34.4468 23.2674 34.685 23.4761 34.8739 23.8581C35.0628 24.24 35.1851 24.6918 35.2408 25.2134C35.2965 25.735 35.3265 26.2222 35.3307 26.6751C35.335 27.128 35.3191 27.5004 35.2833 27.7924Z" fill="url(#paint3_radial_6110_3502)"/>
<defs>
<radialGradient id="paint0_radial_6110_3502" cx="0" cy="0" r="1" gradientTransform="matrix(17.012 16.9259 20.323 -28.527 3.16346 18.9848)" gradientUnits="userSpaceOnUse">
<stop stop-color="#82B79E"/>
<stop offset="1" stop-color="#4B858F"/>
</radialGradient>
<radialGradient id="paint1_radial_6110_3502" cx="0" cy="0" r="1" gradientUnits="userSpaceOnUse" gradientTransform="translate(11.3618 -0.32998) rotate(63.1302) scale(34.7131 47.7972)">
<stop stop-color="#8299B7"/>
<stop offset="1" stop-color="#514B8F"/>
</radialGradient>
<radialGradient id="paint2_radial_6110_3502" cx="0" cy="0" r="1" gradientUnits="userSpaceOnUse" gradientTransform="translate(25.4602 8.83465) rotate(115.927) scale(27.6905 38.1277)">
<stop stop-color="#8299B7"/>
<stop offset="1" stop-color="#514B8F"/>
</radialGradient>
<radialGradient id="paint3_radial_6110_3502" cx="0" cy="0" r="1" gradientTransform="matrix(-21.3547 13.058 -15.1638 -32.5127 33.5751 24.7864)" gradientUnits="userSpaceOnUse">
<stop stop-color="#82B79E"/>
<stop offset="1" stop-color="#4B858F"/>
</radialGradient>
<clipPath id="clip0_6110_3502">
<rect width="28.9726" height="21.2268" fill="white" transform="matrix(-0.144278 -0.989537 -0.989537 0.144278 32.499 30.9344)"/>
</clipPath>
</defs>
</svg>
