<svg width="39" height="36" viewBox="0 0 39 36" fill="none" xmlns="http://www.w3.org/2000/svg">
<line x1="25.3638" y1="18.3937" x2="28.3937" y2="17.6362" stroke="#5C5D99" stroke-linecap="round"/>
<rect x="17.5005" y="16.4476" width="4" height="3" transform="rotate(-35.6703 17.5005 16.4476)" fill="#62669D"/>
<path d="M20.6383 9.17871C20.8192 9.15235 20.9852 9.19513 21.1365 9.30704C21.2877 9.41896 21.3764 9.56468 21.4026 9.7442C21.5758 10.9318 21.5637 12.0547 21.3664 13.1129C21.1692 14.1711 20.8339 15.1349 20.3605 16.0043C19.8871 16.8736 19.2424 17.7979 18.4264 18.7771C18.2995 18.9296 18.1526 19.018 17.9857 19.0423C17.8049 19.0687 18.7762 19.087 18.625 18.975C18.4737 18.8631 19.7958 18.3868 19.7696 18.2073C19.7454 18.0415 19.4419 17.6237 19.5529 17.4595C19.6926 17.2487 19.2597 17.0264 19.26 17.0044C19.2603 16.9824 18.7477 16.6503 18.8597 16.493C19.5842 15.4213 19.7691 14.2254 19.9983 13.2648C20.2276 12.3041 20.2506 11.1955 20.0674 9.93888C20.0412 9.75936 20.0846 9.59438 20.1976 9.44393C20.3106 9.29348 20.4575 9.20508 20.6383 9.17871ZM21.9306 3.57495C21.27 3.67128 20.609 3.83817 19.9476 4.07563C18.4361 4.62036 17.1972 5.45146 16.2309 6.56895C15.2646 7.68644 14.5127 9.05647 13.9751 10.6791C13.4395 12.2661 13.2844 13.8329 13.5099 15.3796C13.6589 16.4014 13.9663 17.3649 14.4321 18.2701C14.482 18.3686 14.6723 18.6511 15.0031 19.1176C15.3339 19.5841 16.0511 19.8715 16.0743 20.0303C16.0904 20.1408 16.2541 19.4729 16.0553 19.6676C15.8564 19.8623 16.539 19.7938 16.2964 19.9808C16.0537 20.1678 16.5124 19.7132 16.3211 19.9596C16.1298 20.2061 16.4745 19.7252 16.5037 19.9254C16.547 20.2223 16.712 19.9665 16.8544 20.0903C16.9967 20.2141 17.3036 19.6616 17.6209 19.7916C19.3441 17.0977 17.2421 19.9167 17.2421 19.9167C19.1943 17.1732 17.4648 20.0946 17.4648 20.0946C17.4648 20.0946 18.9477 17.3154 17.5641 19.757C19.133 16.9883 17.4648 20.0946 17.4648 20.0946C17.4648 20.0946 17.2306 20.1672 17.4671 19.9141C17.7036 19.661 16.7038 20.3731 16.8544 20.0903C17.0049 19.8074 17.4412 20.1003 17.2421 19.9167C17.4126 19.6733 17.432 19.7763 17.5641 19.757C17.5919 19.753 17.6705 19.3658 17.9211 19.4279C18.1716 19.4901 18.2194 21.2787 18.291 21.2824C18.6547 21.2928 19.0209 21.2712 19.3894 21.2174C20.1892 21.1008 20.9323 20.8391 21.6187 20.4323C22.3051 20.0255 22.8867 19.5212 23.3636 18.9193C23.8404 18.3174 25.5212 17.7206 25.8393 17.0044C26.1574 16.2881 27.3594 16.2891 27.5 15.5C27.5698 15.102 25.3297 13.7725 25.2913 13.1435C25.2528 12.5145 25.1938 11.8903 25.1141 11.2708C25.0344 10.6513 24.9655 10.0321 24.9072 9.41303C24.8488 8.79397 24.85 8.21737 24.9106 7.68321C24.9712 7.14906 25.1106 6.72859 25.3286 6.4218L25.5918 6.07141L25.8393 5.7233L26.0072 5.41325L26.119 5.0109L26.1002 4.55354C26.061 4.28426 25.8655 4.0642 25.5139 3.89335C25.1623 3.72251 24.749 3.61531 24.2739 3.57176C23.7988 3.52821 23.3555 3.50822 22.9441 3.51179C22.5327 3.51537 22.1949 3.53642 21.9306 3.57495Z" fill="url(#paint0_radial_6353_82)"/>
<rect x="20.5085" y="6.74121" width="3.59675" height="9.72767" transform="rotate(-10.8362 20.5085 6.74121)" fill="#62669D"/>
<path d="M23.4759 6.74164C23.2763 6.71254 23.0932 6.75879 22.9265 6.88038C22.7598 7.00198 22.6622 7.16052 22.6337 7.35602C22.4452 8.6493 22.4609 9.87251 22.6808 11.0257C22.9007 12.1789 23.2728 13.2295 23.797 14.1775C24.3213 15.1254 25.0347 16.1336 25.9372 17.2021C26.0776 17.3684 25.3158 17.4731 25.5 17.5C25.6996 17.5291 25.5518 17.5388 25.7185 17.4173C25.8852 17.2957 24.4253 16.774 24.4538 16.5785C24.4801 16.398 24.8141 15.9435 24.6913 15.7643C24.5367 15.5345 25.014 15.2932 25.0136 15.2692C25.0132 15.2453 25.5781 14.8846 25.4542 14.713C24.6525 13.5441 24.4459 12.241 24.1909 11.194C23.9358 10.1471 23.9081 8.93938 24.1076 7.57092C24.1361 7.37542 24.0879 7.19561 23.9628 7.03148C23.8378 6.86736 23.6755 6.77074 23.4759 6.74164ZM22.038 0.634607C22.7672 0.740936 23.497 0.924136 24.2274 1.1842C25.8965 1.78079 27.2654 2.68876 28.3342 3.90811C29.4029 5.12746 30.2356 6.62146 30.8322 8.39013C31.4267 10.1201 31.6011 11.8272 31.3556 13.5115C31.1933 14.6243 30.8561 15.6732 30.344 16.6582C30.2892 16.7654 30.0798 17.0727 29.7157 17.5802C29.3517 18.0877 28.5608 18.3993 28.5356 18.5722C28.518 18.6925 28.3359 17.9646 28.5558 18.1772C28.7757 18.3897 28.0222 18.3136 28.2904 18.5178C28.5585 18.722 28.0514 18.2258 28.263 18.4947C28.4747 18.7636 28.0932 18.239 28.0614 18.457C28.0143 18.7803 27.8316 18.5013 27.6748 18.6358C27.518 18.7704 27.1781 18.1679 26.8283 18.3089C24.921 15.3707 27.2465 18.446 27.2465 18.446C25.0864 15.4533 27.0012 18.6393 27.0012 18.6393C27.0012 18.6393 25.3589 15.6087 26.8909 18.2713C25.1537 15.252 27.0012 18.6393 27.0012 18.6393C27.0012 18.6393 27.2598 18.7188 26.9983 18.4426C26.7367 18.1664 27.8415 18.9443 27.6748 18.6358C27.5081 18.3274 27.0273 18.6456 27.2465 18.446C27.0579 18.1804 27.0367 18.2926 26.8909 18.2713C26.8602 18.2669 25.2763 19.4328 25 19.5C24.7237 19.5672 26.1709 19.9276 26.092 19.9314C25.6906 19.942 25.2865 19.9177 24.8797 19.8583C23.9969 19.7296 23.1763 19.443 22.4179 18.9984C21.6596 18.5538 21.0167 18.0031 20.4892 17.3465C19.9617 16.6898 19.5216 15.971 19.169 15.1901C18.8164 14.4092 18.5617 13.5888 18.4048 12.7289C18.3269 12.2953 18.3085 11.7359 18.3496 11.0507C18.3907 10.3656 18.4546 9.68577 18.5412 9.01114C18.6278 8.3365 18.7026 7.66208 18.7656 6.98784C18.8286 6.31361 18.8261 5.6855 18.7581 5.10351C18.6901 4.52151 18.5355 4.06319 18.2942 3.72854L18.003 3.34629L17.7291 2.96657L17.5432 2.62847L17.419 2.18994L17.4387 1.69177C17.4815 1.39852 17.6967 1.15922 18.0843 0.973859C18.472 0.788495 18.9279 0.672598 19.4521 0.626164C19.9763 0.57973 20.4654 0.558898 20.9194 0.563662C21.3734 0.568427 21.7463 0.592075 22.038 0.634607Z" fill="url(#paint1_radial_6353_82)"/>
<rect x="8.29614" y="16.6329" width="11.221" height="7.42162" transform="rotate(17.4619 8.29614 16.6329)" fill="#5E9794"/>
<path d="M9.1475 18.2202C9.18781 18.0146 9.28965 17.8483 9.45303 17.7211C9.61641 17.5939 9.78973 17.5461 9.97299 17.5776C11.1853 17.786 12.2676 18.1743 13.22 18.7425C14.1723 19.3107 14.9829 19.9976 15.6519 20.8031C16.3209 21.6086 16.9807 22.6188 17.6313 23.8338C17.7327 24.0229 17.7648 24.2123 17.7275 24.402C17.6872 24.6075 17.5854 24.7739 17.422 24.901C17.2586 25.0282 17.0853 25.0761 16.9021 25.0446C16.7329 25.0155 16.589 24.9131 16.4705 24.7375C16.3174 24.515 16.2346 24.0205 15.9762 23.592C15.7177 23.1635 15.4324 22.4665 15.3209 22.2921C14.5475 21.1459 13.7151 20.8522 12.8689 20.2818C12.0227 19.7114 10.9581 19.3159 9.67531 19.0954C9.49205 19.0639 9.34819 18.9615 9.24373 18.7883C9.13926 18.6151 9.10719 18.4257 9.1475 18.2202ZM4.19478 14.9418C4.04749 15.6928 3.96837 16.4678 3.95739 17.2667C3.93433 19.0932 4.28764 20.7188 5.01733 22.1435C5.74703 23.5683 6.79917 24.8441 8.17378 25.9711C9.5147 27.0842 10.9746 27.7764 12.5534 28.0478C13.5966 28.2271 14.641 28.2146 15.6865 28.0103C15.8 27.9889 16.1427 27.8763 16.7146 27.6722C17.2865 27.4682 17.6535 27.3801 17.8156 27.4079C17.9284 27.4273 18.0428 27.5777 18.1588 27.8592C18.2748 28.1406 18.3791 28.4446 18.4718 28.771C18.5644 29.0975 18.6952 29.4059 18.864 29.6965C19.0329 29.987 19.2196 30.1498 19.424 30.185C19.7271 30.2371 19.9644 30.2064 20.136 30.0929C20.3077 29.9794 20.5141 29.7717 20.7555 29.47C20.7758 29.4408 20.8054 29.401 20.8445 29.3505C20.8835 29.3 20.9107 29.2638 20.9259 29.2419C20.9411 29.22 20.959 29.1843 20.9797 29.1347C21.0004 29.0851 21.0161 29.0327 21.027 28.9774C21.0812 28.7007 21.0289 28.3914 20.8701 28.0495C20.7113 27.7076 20.5225 27.4075 20.3035 27.1492C20.0846 26.8909 19.8884 26.6284 19.7148 26.3616C19.5413 26.0948 19.4692 25.8863 19.4987 25.7361C19.5049 25.7044 19.5837 25.5627 19.7351 25.3109C19.8865 25.0591 19.977 24.8949 20.0066 24.8183C20.1491 24.426 20.2614 24.0204 20.3436 23.6014C20.5219 22.6923 20.5391 21.7964 20.3953 20.9136C20.2515 20.0309 19.9752 19.2296 19.5663 18.5096C19.1574 17.7897 18.6642 17.137 18.0869 16.5515C17.5095 15.966 16.8646 15.465 16.1522 15.0483C15.7924 14.8394 15.3012 14.6508 14.6784 14.4824C14.0557 14.3141 13.4301 14.1698 12.8016 14.0495C12.1731 13.9292 11.5486 13.7973 10.9283 13.6539C10.308 13.5105 9.75038 13.3166 9.2555 13.0722C8.76063 12.8278 8.40443 12.5357 8.18691 12.1959L7.94362 11.7925L7.69684 11.4069L7.45789 11.1207L7.1092 10.8646L6.65976 10.7322C6.38487 10.6849 6.10076 10.824 5.80741 11.1495C5.51407 11.475 5.25984 11.8889 5.04474 12.3913C4.82964 12.8936 4.64893 13.3692 4.50262 13.818C4.35631 14.2668 4.2537 14.6414 4.19478 14.9418Z" fill="url(#paint2_radial_6353_82)"/>
<rect width="14.3036" height="7.92201" transform="matrix(-0.987523 0.157474 0.157474 0.987523 31.4026 20.6897)" fill="#5E9794"/>
<path d="M30.2279 22.8249C30.2226 22.6206 30.1395 22.4473 29.9784 22.3051C29.8173 22.1629 29.6292 22.0967 29.414 22.1064C27.9906 22.1708 26.6798 22.4248 25.4816 22.8684C24.2835 23.3121 23.2233 23.8871 22.3012 24.5936C21.379 25.3002 20.4268 26.2067 19.4446 27.3133C19.2916 27.4854 19.2176 27.6658 19.2224 27.8544C19.2277 28.0587 19.3109 28.232 19.472 28.3742C19.633 28.5164 19.8212 28.5826 20.0363 28.5729C20.2349 28.5639 20.4192 28.4808 20.5892 28.3237C20.8077 28.1249 21 27.6538 21.3795 27.2668C21.7589 26.8799 22.2222 26.2351 22.3838 26.0783C23.4924 25.0526 24.4995 24.8621 25.5772 24.4042C26.6549 23.9464 27.9468 23.6834 29.4529 23.6153C29.6681 23.6055 29.8524 23.5225 30.0057 23.366C30.1591 23.2096 30.2332 23.0292 30.2279 22.8249ZM36.5233 20.2035C36.5425 20.9501 36.4793 21.7122 36.3337 22.4898C35.9984 24.2673 35.2738 25.8068 34.1599 27.1081C33.046 28.4095 31.5939 29.5294 29.8037 30.4679C28.0546 31.3967 26.2532 31.9031 24.3995 31.9869C23.1748 32.0423 21.9866 31.9111 20.8351 31.5934C20.7099 31.5597 20.3415 31.4111 19.7299 31.1477C19.1183 30.8842 18.7173 30.7568 18.527 30.7654C18.3946 30.7714 18.2344 30.9045 18.0464 31.1648C17.8584 31.4251 17.6793 31.7085 17.5091 32.0152C17.3389 32.3219 17.1287 32.6068 16.8787 32.8698C16.6286 33.1329 16.3836 33.2699 16.1436 33.2807C15.7878 33.2968 15.5233 33.2399 15.3501 33.1101C15.1769 32.9802 14.9826 32.7549 14.7672 32.4342C14.7498 32.4036 14.7239 32.3615 14.6893 32.3079C14.6548 32.2544 14.6311 32.2162 14.618 32.1931C14.605 32.1701 14.5916 32.1334 14.5779 32.0828C14.5642 32.0323 14.5566 31.9796 14.5552 31.9246C14.5481 31.6495 14.6689 31.3549 14.9176 31.0407C15.1664 30.7266 15.4411 30.4565 15.7418 30.2305C16.0425 30.0044 16.3182 29.7717 16.5689 29.5322C16.8196 29.2927 16.943 29.0983 16.9391 28.949C16.9383 28.9175 16.8765 28.7708 16.7538 28.5089C16.631 28.2469 16.5604 28.077 16.5418 27.9992C16.457 27.6018 16.4092 27.1948 16.3984 26.7783C16.3751 25.8746 16.5328 25.002 16.8715 24.1606C17.2102 23.3192 17.6839 22.5719 18.2926 21.9189C18.9013 21.2659 19.5927 20.6878 20.3668 20.1847C21.1409 19.6816 21.9753 19.2682 22.87 18.9445C23.3215 18.7824 23.9189 18.6551 24.6622 18.5625C25.4055 18.4699 26.1473 18.4009 26.8876 18.3556C27.628 18.3104 28.366 18.2534 29.1016 18.1847C29.8372 18.116 30.5113 17.9912 31.1238 17.81C31.7364 17.6289 32.2003 17.3857 32.5156 17.0803L32.8728 16.716L33.2304 16.3694L33.5595 16.1185L34.0077 15.9094L34.5463 15.8319C34.8691 15.8173 35.1655 15.9849 35.4355 16.3346C35.7055 16.6843 35.9134 17.1155 36.0592 17.6282C36.2049 18.1408 36.3168 18.6236 36.3948 19.0764C36.4727 19.5292 36.5156 19.9049 36.5233 20.2035Z" fill="url(#paint3_radial_6353_82)"/>
<rect x="25" y="16" width="4" height="2" fill="#5C5E99"/>
<defs>
<radialGradient id="paint0_radial_6353_82" cx="0" cy="0" r="1" gradientTransform="matrix(-8.74973 16.2843 24.0568 10.5488 23.5565 5.60922)" gradientUnits="userSpaceOnUse">
<stop stop-color="#8299B7"/>
<stop offset="1" stop-color="#514B8F"/>
</radialGradient>
<radialGradient id="paint1_radial_6353_82" cx="0" cy="0" r="1" gradientTransform="matrix(9.6902 17.7573 -26.5254 11.4401 20.248 2.84714)" gradientUnits="userSpaceOnUse">
<stop stop-color="#8299B7"/>
<stop offset="1" stop-color="#514B8F"/>
</radialGradient>
<radialGradient id="paint2_radial_6353_82" cx="0" cy="0" r="1" gradientTransform="matrix(15.477 19.0916 24.1306 -27.9653 6.70653 12.444)" gradientUnits="userSpaceOnUse">
<stop stop-color="#82B79E"/>
<stop offset="1" stop-color="#4B858F"/>
</radialGradient>
<radialGradient id="paint3_radial_6353_82" cx="0" cy="0" r="1" gradientTransform="matrix(-21.4239 16.7887 -21.9746 -29.9252 34.1542 17.4901)" gradientUnits="userSpaceOnUse">
<stop stop-color="#82B79E"/>
<stop offset="1" stop-color="#4B858F"/>
</radialGradient>
</defs>
</svg>
