<svg width="27" height="22" viewBox="0 0 27 22" fill="none" xmlns="http://www.w3.org/2000/svg">
<rect width="15.8823" height="9.1887" transform="matrix(-1 0 0 1 20.6472 7.65723)" fill="#5E9794"/>
<path d="M18.9858 9.88839C19.0158 9.65339 18.9549 9.43974 18.8031 9.24743C18.6513 9.05513 18.4566 8.9449 18.219 8.91674C16.647 8.73048 15.1653 8.78199 13.7739 9.07129C12.3824 9.36058 11.1194 9.82565 9.98473 10.4665C8.85005 11.1073 7.64745 11.9718 6.37691 13.0598C6.17907 13.2291 6.06633 13.4221 6.03869 13.6391C6.00874 13.8741 6.06965 14.0877 6.22142 14.28C6.37319 14.4723 6.56789 14.5826 6.80552 14.6107C7.02487 14.6367 7.24145 14.5752 7.45527 14.4262C7.72969 14.2385 8.02295 13.734 8.50664 13.3601C8.99034 12.9862 9.61108 12.3323 9.81575 12.1822C11.2107 11.2098 12.3483 11.1755 13.6101 10.8479C14.8718 10.5203 16.3344 10.455 17.9978 10.6521C18.2355 10.6803 18.4521 10.6188 18.6476 10.4676C18.8431 10.3165 18.9559 10.1234 18.9858 9.88839ZM26.3472 8.03566C26.2377 8.89431 26.0352 9.75569 25.7395 10.6198C25.0611 12.5946 23.9974 14.2255 22.5484 15.5127C21.0994 16.7998 19.3114 17.8174 17.1842 18.5654C15.104 19.3098 13.0402 19.5607 10.9929 19.3181C9.64023 19.1579 8.36032 18.7906 7.15319 18.2163C7.02185 18.1549 6.6439 17.9175 6.01932 17.504C5.39474 17.0905 4.97735 16.8713 4.76714 16.8464C4.6209 16.8291 4.42196 16.9523 4.17032 17.2161C3.91868 17.4799 3.67273 17.7718 3.43246 18.092C3.19219 18.4122 2.91196 18.7001 2.59177 18.9558C2.27158 19.2114 1.97896 19.3236 1.71391 19.2922C1.32091 19.2456 1.0408 19.1321 0.873597 18.9518C0.706391 18.7714 0.532731 18.4779 0.352616 18.0712C0.338944 18.0328 0.31786 17.9799 0.289364 17.9123C0.260868 17.8447 0.241493 17.7965 0.231239 17.7678C0.220985 17.739 0.212746 17.6945 0.206524 17.6341C0.200301 17.5737 0.201221 17.5119 0.209284 17.4486C0.249597 17.1323 0.433591 16.8169 0.761265 16.5025C1.08894 16.1881 1.43741 15.9289 1.80667 15.7249C2.17594 15.521 2.51894 15.3047 2.83567 15.0762C3.1524 14.8476 3.32171 14.6475 3.3436 14.4758C3.3482 14.4396 3.30611 14.2603 3.21732 13.9378C3.12852 13.6154 3.08075 13.4079 3.07398 13.3153C3.05047 12.8446 3.06924 12.3697 3.13028 11.8907C3.26274 10.8513 3.58823 9.88062 4.10674 8.97869C4.62526 8.07676 5.27532 7.30741 6.05694 6.67061C6.83855 6.03382 7.69775 5.49797 8.63455 5.06306C9.57135 4.62815 10.5586 4.30703 11.5963 4.09968C12.1197 3.99655 12.797 3.95983 13.6282 3.9895C14.4594 4.01917 15.2849 4.07569 16.1046 4.15906C16.9243 4.24242 17.7435 4.31196 18.5621 4.36766C19.3807 4.42337 20.1417 4.40344 20.8451 4.30787C21.5485 4.2123 22.0997 4.01842 22.4987 3.72623L22.9541 3.3742L23.4069 3.04251L23.8116 2.81521L24.3397 2.65758L24.9438 2.66723C25.3003 2.70946 25.5959 2.95552 25.8309 3.4054C26.0658 3.85528 26.2183 4.38715 26.2886 5.00101C26.3588 5.61487 26.397 6.18825 26.4033 6.72114C26.4097 7.25403 26.3909 7.6922 26.3472 8.03566Z" fill="url(#paint0_radial_6353_25)"/>
<defs>
<radialGradient id="paint0_radial_6353_25" cx="0" cy="0" r="1" gradientTransform="matrix(-26.4273 15.317 -18.863 -38.2907 24.2239 4.49487)" gradientUnits="userSpaceOnUse">
<stop stop-color="#82B79E"/>
<stop offset="1" stop-color="#4B858F"/>
</radialGradient>
</defs>
</svg>
