<svg width="39" height="28" viewBox="0 0 39 28" fill="none" xmlns="http://www.w3.org/2000/svg">
<rect x="8.51147" y="7.94836" width="12.3157" height="8.13923" transform="rotate(17.4619 8.51147 7.94836)" fill="#5E9794"/>
<path d="M9.1475 10.2202C9.18781 10.0146 9.28965 9.84828 9.45303 9.7211C9.61641 9.59392 9.78973 9.54609 9.97299 9.57759C11.1853 9.78599 12.2676 10.1743 13.22 10.7425C14.1723 11.3107 14.9829 11.9976 15.6519 12.8031C16.3209 13.6086 16.9807 14.6188 17.6313 15.8338C17.7327 16.0229 17.7648 16.2123 17.7275 16.402C17.6872 16.6075 17.5854 16.7739 17.422 16.901C17.2586 17.0282 17.0853 17.0761 16.9021 17.0446C16.7329 17.0155 16.589 16.9131 16.4705 16.7375C16.3174 16.515 16.2346 16.0205 15.9762 15.592C15.7177 15.1635 15.4324 14.4665 15.3209 14.2921C14.5475 13.1459 13.7151 12.8522 12.8689 12.2818C12.0227 11.7114 10.9581 11.3159 9.67531 11.0954C9.49205 11.0639 9.34819 10.9615 9.24373 10.7883C9.13926 10.6151 9.10719 10.4257 9.1475 10.2202ZM4.19478 6.9418C4.04749 7.69279 3.96837 8.46776 3.95739 9.2667C3.93433 11.0932 4.28764 12.7188 5.01733 14.1435C5.74703 15.5683 6.79917 16.8441 8.17378 17.9711C9.5147 19.0842 10.9746 19.7764 12.5534 20.0478C13.5966 20.2271 14.641 20.2146 15.6865 20.0103C15.8 19.9889 16.1427 19.8763 16.7146 19.6722C17.2865 19.4682 17.6535 19.3801 17.8156 19.4079C17.9284 19.4273 18.0428 19.5777 18.1588 19.8592C18.2748 20.1406 18.3791 20.4446 18.4718 20.771C18.5644 21.0975 18.6952 21.4059 18.864 21.6965C19.0329 21.987 19.2196 22.1498 19.424 22.185C19.7271 22.2371 19.9644 22.2064 20.136 22.0929C20.3077 21.9794 20.5141 21.7717 20.7555 21.47C20.7758 21.4408 20.8054 21.401 20.8445 21.3505C20.8835 21.3 20.9107 21.2638 20.9259 21.2419C20.9411 21.22 20.959 21.1843 20.9797 21.1347C21.0004 21.0851 21.0161 21.0327 21.027 20.9774C21.0812 20.7007 21.0289 20.3914 20.8701 20.0495C20.7113 19.7076 20.5225 19.4075 20.3035 19.1492C20.0846 18.8909 19.8884 18.6284 19.7148 18.3616C19.5413 18.0948 19.4692 17.8863 19.4987 17.7361C19.5049 17.7044 19.5837 17.5627 19.7351 17.3109C19.8865 17.0591 19.977 16.8949 20.0066 16.8183C20.1491 16.426 20.2614 16.0204 20.3436 15.6014C20.5219 14.6923 20.5391 13.7964 20.3953 12.9136C20.2515 12.0309 19.9752 11.2296 19.5663 10.5096C19.1574 9.78967 18.6642 9.13697 18.0869 8.55151C17.5095 7.96605 16.8646 7.46499 16.1522 7.04834C15.7924 6.83941 15.3012 6.65077 14.6784 6.48244C14.0557 6.3141 13.4301 6.16978 12.8016 6.04949C12.1731 5.92919 11.5486 5.79733 10.9283 5.65392C10.308 5.51052 9.75038 5.3166 9.2555 5.07219C8.76063 4.82777 8.40443 4.53569 8.18691 4.19594L7.94362 3.79253L7.69684 3.40689L7.45789 3.12067L7.1092 2.86461L6.65976 2.73219C6.38487 2.68493 6.10076 2.82404 5.80741 3.14952C5.51407 3.47499 5.25984 3.8889 5.04474 4.39125C4.82964 4.89361 4.64893 5.36919 4.50262 5.818C4.35631 6.2668 4.2537 6.64141 4.19478 6.9418Z" fill="url(#paint0_radial_6353_50)"/>
<rect width="14.3036" height="7.92201" transform="matrix(-0.987523 0.157474 0.157474 0.987523 31.4026 12.6897)" fill="#5E9794"/>
<path d="M30.2279 14.8249C30.2226 14.6206 30.1395 14.4473 29.9784 14.3051C29.8173 14.1629 29.6292 14.0967 29.414 14.1064C27.9906 14.1708 26.6798 14.4248 25.4816 14.8684C24.2835 15.3121 23.2233 15.8871 22.3012 16.5936C21.379 17.3002 20.4268 18.2067 19.4446 19.3133C19.2916 19.4854 19.2176 19.6658 19.2224 19.8544C19.2277 20.0587 19.3109 20.232 19.472 20.3742C19.633 20.5164 19.8212 20.5826 20.0363 20.5729C20.2349 20.5639 20.4192 20.4808 20.5892 20.3237C20.8077 20.1249 21 19.6538 21.3795 19.2668C21.7589 18.8799 22.2222 18.2351 22.3838 18.0783C23.4924 17.0526 24.4995 16.8621 25.5772 16.4042C26.6549 15.9464 27.9468 15.6834 29.4529 15.6153C29.6681 15.6055 29.8524 15.5225 30.0057 15.366C30.1591 15.2096 30.2332 15.0292 30.2279 14.8249ZM36.5233 12.2035C36.5425 12.9501 36.4793 13.7122 36.3337 14.4898C35.9984 16.2673 35.2738 17.8068 34.1599 19.1081C33.046 20.4095 31.5939 21.5294 29.8037 22.4679C28.0546 23.3967 26.2532 23.9031 24.3995 23.9869C23.1748 24.0423 21.9866 23.9111 20.8351 23.5934C20.7099 23.5597 20.3415 23.4111 19.7299 23.1477C19.1183 22.8842 18.7173 22.7568 18.527 22.7654C18.3946 22.7714 18.2344 22.9045 18.0464 23.1648C17.8584 23.4251 17.6793 23.7085 17.5091 24.0152C17.3389 24.3219 17.1287 24.6068 16.8787 24.8698C16.6286 25.1329 16.3836 25.2699 16.1436 25.2807C15.7878 25.2968 15.5233 25.2399 15.3501 25.1101C15.1769 24.9802 14.9826 24.7549 14.7672 24.4342C14.7498 24.4036 14.7239 24.3615 14.6893 24.3079C14.6548 24.2544 14.6311 24.2162 14.618 24.1931C14.605 24.1701 14.5916 24.1334 14.5779 24.0828C14.5642 24.0323 14.5566 23.9796 14.5552 23.9246C14.5481 23.6495 14.6689 23.3549 14.9176 23.0407C15.1664 22.7266 15.4411 22.4565 15.7418 22.2305C16.0425 22.0044 16.3182 21.7717 16.5689 21.5322C16.8196 21.2927 16.943 21.0983 16.9391 20.949C16.9383 20.9175 16.8765 20.7708 16.7538 20.5089C16.631 20.2469 16.5604 20.077 16.5418 19.9992C16.457 19.6018 16.4092 19.1948 16.3984 18.7783C16.3751 17.8746 16.5328 17.002 16.8715 16.1606C17.2102 15.3192 17.6839 14.5719 18.2926 13.9189C18.9013 13.2659 19.5927 12.6878 20.3668 12.1847C21.1409 11.6816 21.9753 11.2682 22.87 10.9445C23.3215 10.7824 23.9189 10.6551 24.6622 10.5625C25.4055 10.4699 26.1473 10.4009 26.8876 10.3556C27.628 10.3104 28.366 10.2534 29.1016 10.1847C29.8372 10.116 30.5113 9.99116 31.1238 9.81004C31.7364 9.62891 32.2003 9.38567 32.5156 9.08031L32.8728 8.71601L33.2304 8.36939L33.5595 8.11848L34.0077 7.90939L34.5463 7.83193C34.8691 7.81733 35.1655 7.98489 35.4355 8.3346C35.7055 8.6843 35.9134 9.11549 36.0592 9.62817C36.2049 10.1408 36.3168 10.6236 36.3948 11.0764C36.4727 11.5292 36.5156 11.9049 36.5233 12.2035Z" fill="url(#paint1_radial_6353_50)"/>
<defs>
<radialGradient id="paint0_radial_6353_50" cx="0" cy="0" r="1" gradientTransform="matrix(15.477 19.0916 24.1306 -27.9653 6.70653 4.44401)" gradientUnits="userSpaceOnUse">
<stop stop-color="#82B79E"/>
<stop offset="1" stop-color="#4B858F"/>
</radialGradient>
<radialGradient id="paint1_radial_6353_50" cx="0" cy="0" r="1" gradientTransform="matrix(-21.4239 16.7887 -21.9746 -29.9252 34.1542 9.49007)" gradientUnits="userSpaceOnUse">
<stop stop-color="#82B79E"/>
<stop offset="1" stop-color="#4B858F"/>
</radialGradient>
</defs>
</svg>
