<svg width="10" height="10" viewBox="0 0 10 10" fill="none" xmlns="http://www.w3.org/2000/svg">
<path d="M5 11.5105L0.8 13.3105C0.133333 13.5938 -0.5 13.5398 -1.1 13.1485C-1.7 12.7572 -2 12.2028 -2 11.4855V-1.4895C-2 -2.0395 -1.804 -2.51017 -1.412 -2.9015C-1.02 -3.29284 -0.549333 -3.48884 0 -3.4895H10C10.55 -3.4895 11.021 -3.2935 11.413 -2.9015C11.805 -2.5095 12.0007 -2.03884 12 -1.4895V11.4855C12 12.2022 11.7 12.7565 11.1 13.1485C10.5 13.5405 9.86667 13.5945 9.2 13.3105L5 11.5105ZM5 9.3105L10 11.4605V-1.4895H0V11.4605L5 9.3105ZM5 -1.4895H0H10H5Z" fill="#989898"/>
</svg>
