<svg width="25" height="25" viewBox="0 0 25 25" fill="none" xmlns="http://www.w3.org/2000/svg">
<path d="M10.4167 4.16663C9.31164 4.16663 8.25183 4.60561 7.47043 5.38701C6.68903 6.16842 6.25004 7.22822 6.25004 8.33329C6.25004 9.43836 6.68903 10.4982 7.47043 11.2796C8.25183 12.061 9.31164 12.5 10.4167 12.5C11.5218 12.5 12.5816 12.061 13.363 11.2796C14.1444 10.4982 14.5834 9.43836 14.5834 8.33329C14.5834 7.22822 14.1444 6.16842 13.363 5.38701C12.5816 4.60561 11.5218 4.16663 10.4167 4.16663ZM17.7084 12.5C17.6447 12.4988 17.5827 12.52 17.5332 12.5601C17.4836 12.6001 17.4498 12.6562 17.4375 12.7187L17.2396 14.0937C16.9271 14.2291 16.625 14.3958 16.3542 14.5833L15.0625 14.0625C14.948 14.0625 14.8125 14.0625 14.7396 14.1979L13.698 16C13.6355 16.1145 13.6563 16.25 13.7605 16.3333L14.8646 17.1875C14.8231 17.5334 14.8231 17.8831 14.8646 18.2291L13.7605 19.0833C13.7136 19.1234 13.6819 19.1784 13.6706 19.239C13.6592 19.2996 13.6689 19.3622 13.698 19.4166L14.7396 21.2187C14.8021 21.3541 14.9375 21.3541 15.0625 21.3541L16.3542 20.8333C16.625 21.0208 16.9167 21.1979 17.2396 21.3229L17.4375 22.6979C17.4584 22.8229 17.5625 22.9166 17.7084 22.9166H19.7917C19.9063 22.9166 20.0209 22.8229 20.0417 22.6979L20.2396 21.3229C20.5521 21.1875 20.8334 21.0208 21.1146 20.8333L22.3959 21.3541C22.5313 21.3541 22.6667 21.3541 22.7396 21.2187L23.7813 19.4166C23.8104 19.3622 23.82 19.2996 23.8087 19.239C23.7973 19.1784 23.7656 19.1234 23.7188 19.0833L22.6042 18.2291C22.625 18.052 22.6459 17.8854 22.6459 17.7083C22.6459 17.5312 22.6355 17.3645 22.6042 17.1875L23.7084 16.3333C23.7552 16.2931 23.7869 16.2382 23.7983 16.1776C23.8096 16.117 23.8 16.0543 23.7709 16L22.7292 14.1979C22.6667 14.0625 22.5313 14.0625 22.3959 14.0625L21.1146 14.5833C20.8334 14.3958 20.5521 14.2187 20.2292 14.0937L20.0313 12.7187C20.0247 12.6594 19.9968 12.6045 19.9527 12.5642C19.9086 12.5239 19.8514 12.5011 19.7917 12.5H17.7084ZM10.4167 14.5833C5.81254 14.5833 2.08337 16.4479 2.08337 18.75V20.8333H12.1667C11.7018 19.857 11.4599 18.7896 11.4584 17.7083C11.4605 16.6617 11.6879 15.6279 12.125 14.677C11.573 14.6145 11 14.5833 10.4167 14.5833ZM18.75 16.1458C19.6146 16.1458 20.3125 16.8437 20.3125 17.7083C20.3125 18.5729 19.6146 19.2708 18.75 19.2708C17.875 19.2708 17.1875 18.5729 17.1875 17.7083C17.1875 16.8437 17.8855 16.1458 18.75 16.1458Z" fill="#697076"/>
</svg>
