<svg width="41" height="36" viewBox="0 0 41 36" fill="none" xmlns="http://www.w3.org/2000/svg">
<g clip-path="url(#clip0_6163_7188)">
<path d="M30.5263 23.4901C30.6867 23.3372 30.767 23.1435 30.7672 22.909C30.7674 22.6745 30.6874 22.4732 30.5272 22.3051C29.4678 21.1934 28.3357 20.3112 27.1309 19.6586C25.9262 19.006 24.7136 18.5613 23.4931 18.3245C22.2727 18.0877 20.8702 17.9719 19.2858 17.9771C19.0392 17.9778 18.8419 18.0487 18.6938 18.1898C18.5334 18.3427 18.4531 18.5364 18.4529 18.7709C18.4527 19.0054 18.5327 19.2067 18.6929 19.3748C18.8407 19.5299 19.0379 19.6195 19.2845 19.6435C19.5989 19.6769 20.0458 19.7073 20.6253 19.7347C21.2048 19.7622 21.6147 19.7847 21.8552 19.8022C23.4641 19.9586 24.834 20.309 25.9648 20.8532C27.0956 21.3974 28.2216 22.2577 29.3426 23.434C29.5028 23.6021 29.7 23.6917 29.9342 23.7028C30.1685 23.7138 30.3658 23.643 30.5263 23.4901ZM37.0893 26.7078C36.5032 27.2664 35.8462 27.7691 35.1184 28.2161C33.453 29.2358 31.7033 29.7655 29.8692 29.8052C28.0351 29.8449 26.1073 29.4774 24.0858 28.7028C22.1013 27.9546 20.4191 26.8566 19.0394 25.4087C18.1277 24.4521 17.3919 23.3897 16.8318 22.2214C16.7703 22.095 16.6288 21.6871 16.4074 20.9977C16.1861 20.3084 16.0045 19.8893 15.8629 19.7407C15.7643 19.6373 15.5439 19.6037 15.2017 19.6399C14.8596 19.6762 14.505 19.7365 14.1381 19.821C13.7713 19.9055 13.3936 19.9416 13.0052 19.9294C12.6169 19.9172 12.3334 19.8173 12.1547 19.6299C11.8899 19.352 11.7483 19.0953 11.73 18.8599C11.7117 18.6245 11.7551 18.3025 11.8602 17.894C11.8726 17.8575 11.888 17.8058 11.9066 17.7388C11.9251 17.6718 11.939 17.6246 11.9483 17.5973C11.9576 17.5699 11.9776 17.5323 12.0085 17.4844C12.0394 17.4365 12.0764 17.392 12.1196 17.3508C12.3355 17.145 12.6577 17.0291 13.0862 17.0031C13.5147 16.9771 13.9262 17.0043 14.3207 17.0847C14.7152 17.1651 15.0974 17.2202 15.4672 17.2501C15.8371 17.28 16.0807 17.239 16.1979 17.1273C16.2226 17.1038 16.2967 16.9468 16.4202 16.6564C16.5437 16.366 16.6302 16.185 16.6796 16.1133C16.9388 15.7552 17.2319 15.4204 17.5589 15.1088C18.2684 14.4326 19.0811 13.9264 19.9968 13.5902C20.9126 13.254 21.8483 13.0962 22.8038 13.1167C23.7594 13.1373 24.7133 13.2797 25.6656 13.5439C26.6178 13.808 27.5407 14.1866 28.4342 14.6794C28.8841 14.9291 29.4093 15.3227 30.01 15.8603C30.6106 16.398 31.1912 16.9516 31.7518 17.5213C32.3123 18.0909 32.8806 18.6502 33.4566 19.199C34.0325 19.7478 34.6101 20.2056 35.1893 20.5725C35.7686 20.9394 36.2924 21.1401 36.7609 21.1746L37.3065 21.2004L37.8382 21.2395L38.2728 21.3249L38.7581 21.5376L39.2016 21.9197C39.4419 22.1718 39.5171 22.5349 39.4273 23.0089C39.3375 23.483 39.1383 23.9658 38.8297 24.4572C38.521 24.9487 38.2124 25.3908 37.9039 25.7836C37.5953 26.1763 37.3238 26.4844 37.0893 26.7078Z" fill="url(#paint0_radial_6163_7188)"/>
</g>
<g clip-path="url(#clip1_6163_7188)">
<path d="M21.4746 9.45569C21.4461 9.19875 21.3199 8.98767 21.0959 8.82244C20.8719 8.65722 20.621 8.59002 20.343 8.62087C18.5041 8.8249 16.8313 9.25809 15.3247 9.92045C13.818 10.5828 12.5043 11.3988 11.3835 12.3685C10.2627 13.3382 9.12409 14.5625 7.96778 16.0413C7.78767 16.2714 7.71077 16.505 7.73708 16.7422C7.76559 16.9991 7.89183 17.2102 8.1158 17.3754C8.33976 17.5406 8.59073 17.6078 8.86871 17.577C9.1253 17.5485 9.35544 17.4279 9.55912 17.2153C9.82147 16.9461 10.1781 16.5513 10.6291 16.0311C11.08 15.5109 11.402 15.1451 11.595 14.9336C12.9238 13.5457 14.2626 12.5168 15.6115 11.8469C16.9604 11.177 18.6077 10.7342 20.5535 10.5183C20.8315 10.4874 21.0616 10.3668 21.2439 10.1565C21.4262 9.94625 21.5031 9.71263 21.4746 9.45569ZM29.3599 5.60964C29.4641 6.54845 29.463 7.51395 29.3566 8.50614C29.1104 10.7743 28.3341 12.7762 27.0277 14.5118C25.7213 16.2474 23.9571 17.7836 21.7352 19.1206C19.5657 20.4417 17.2835 21.2351 14.8887 21.5008C13.3064 21.6764 11.7518 21.6138 10.2248 21.313C10.059 21.2814 9.56553 21.1261 8.7445 20.847C7.92346 20.568 7.39 20.4421 7.1441 20.4694C6.97304 20.4884 6.77943 20.6699 6.56327 21.014C6.34711 21.3581 6.14493 21.7307 5.95673 22.1317C5.76853 22.5328 5.52626 22.9098 5.22992 23.2628C4.93358 23.6158 4.63038 23.8095 4.32033 23.8439C3.86061 23.8949 3.51157 23.8461 3.27321 23.6975C3.03485 23.5488 2.759 23.2818 2.44567 22.8964C2.4199 22.8593 2.38179 22.8085 2.33135 22.744C2.28091 22.6796 2.24603 22.6335 2.2267 22.6056C2.20738 22.5777 2.18613 22.5326 2.16297 22.4701C2.1398 22.4077 2.12438 22.3418 2.11671 22.2727C2.07833 21.9268 2.20375 21.5452 2.49297 21.128C2.78219 20.7107 3.10978 20.3468 3.47576 20.0361C3.84173 19.7253 4.17453 19.4083 4.47417 19.085C4.7738 18.7616 4.9132 18.506 4.89237 18.3183C4.88798 18.2787 4.79231 18.0993 4.60535 17.7799C4.41839 17.4605 4.30874 17.2526 4.27639 17.1561C4.12425 16.6628 4.01913 16.1543 3.96101 15.6305C3.83492 14.4941 3.94685 13.3812 4.29679 12.292C4.64673 11.2027 5.18172 10.2205 5.90174 9.34531C6.62177 8.47011 7.457 7.68216 8.40743 6.98148C9.35786 6.28079 10.396 5.68792 11.5219 5.20286C12.0902 4.95974 12.8513 4.74774 13.8053 4.56686C14.7593 4.38598 15.7139 4.23505 16.6691 4.11406C17.6244 3.99307 18.5753 3.85755 19.5219 3.70751C20.4685 3.55746 21.3293 3.3419 22.1044 3.06083C22.8796 2.77975 23.4553 2.43326 23.8317 2.02135L24.2563 1.53157L24.6833 1.06402L25.0834 0.719514L25.6425 0.417394L26.3327 0.273288C26.7496 0.227025 27.1517 0.412503 27.5389 0.829722C27.9261 1.24694 28.2415 1.77217 28.4849 2.40542C28.7283 3.03868 28.9246 3.63714 29.0737 4.20082C29.2228 4.76451 29.3182 5.23411 29.3599 5.60964Z" fill="url(#paint1_radial_6163_7188)"/>
</g>
<defs>
<radialGradient id="paint0_radial_6163_7188" cx="0" cy="0" r="1" gradientUnits="userSpaceOnUse" gradientTransform="translate(37.4998 22.896) rotate(-144.462) scale(25.807 19.3552)">
<stop stop-color="#82B79E"/>
<stop offset="1" stop-color="#4B858F"/>
</radialGradient>
<radialGradient id="paint1_radial_6163_7188" cx="0" cy="0" r="1" gradientUnits="userSpaceOnUse" gradientTransform="translate(26 2.396) rotate(138.504) scale(34.7131 47.7972)">
<stop stop-color="#82B79E"/>
<stop offset="1" stop-color="#4B858F"/>
</radialGradient>
<clipPath id="clip0_6163_7188">
<rect width="24" height="18" fill="white" transform="translate(24.0303 6) rotate(46.3788)"/>
</clipPath>
<clipPath id="clip1_6163_7188">
<rect width="28.9726" height="21.2268" fill="white" transform="translate(0 3.19495) rotate(-6.33118)"/>
</clipPath>
</defs>
</svg>
