<svg width="25" height="25" viewBox="0 0 25 25" fill="none" xmlns="http://www.w3.org/2000/svg">
<path d="M10.4168 4.16663C9.31176 4.16663 8.25195 4.60561 7.47055 5.38701C6.68915 6.16842 6.25016 7.22822 6.25016 8.33329C6.25016 9.43836 6.68915 10.4982 7.47055 11.2796C8.25195 12.061 9.31176 12.5 10.4168 12.5C11.5219 12.5 12.5817 12.061 13.3631 11.2796C14.1445 10.4982 14.5835 9.43836 14.5835 8.33329C14.5835 7.22822 14.1445 6.16842 13.3631 5.38701C12.5817 4.60561 11.5219 4.16663 10.4168 4.16663ZM17.7085 12.5C17.6448 12.4988 17.5828 12.52 17.5333 12.5601C17.4837 12.6001 17.4499 12.6562 17.4377 12.7187L17.2397 14.0937C16.9272 14.2291 16.6252 14.3958 16.3543 14.5833L15.0627 14.0625C14.9481 14.0625 14.8127 14.0625 14.7397 14.1979L13.6981 16C13.6356 16.1145 13.6564 16.25 13.7606 16.3333L14.8647 17.1875C14.8233 17.5334 14.8233 17.8831 14.8647 18.2291L13.7606 19.0833C13.7138 19.1234 13.6821 19.1784 13.6707 19.239C13.6593 19.2996 13.669 19.3622 13.6981 19.4166L14.7397 21.2187C14.8022 21.3541 14.9377 21.3541 15.0627 21.3541L16.3543 20.8333C16.6252 21.0208 16.9168 21.1979 17.2397 21.3229L17.4377 22.6979C17.4585 22.8229 17.5627 22.9166 17.7085 22.9166H19.7918C19.9064 22.9166 20.021 22.8229 20.0418 22.6979L20.2397 21.3229C20.5522 21.1875 20.8335 21.0208 21.1147 20.8333L22.396 21.3541C22.5314 21.3541 22.6668 21.3541 22.7397 21.2187L23.7814 19.4166C23.8105 19.3622 23.8202 19.2996 23.8088 19.239C23.7974 19.1784 23.7657 19.1234 23.7189 19.0833L22.6043 18.2291C22.6252 18.052 22.646 17.8854 22.646 17.7083C22.646 17.5312 22.6356 17.3645 22.6043 17.1875L23.7085 16.3333C23.7553 16.2931 23.787 16.2382 23.7984 16.1776C23.8097 16.117 23.8001 16.0543 23.771 16L22.7293 14.1979C22.6668 14.0625 22.5314 14.0625 22.396 14.0625L21.1147 14.5833C20.8335 14.3958 20.5522 14.2187 20.2293 14.0937L20.0314 12.7187C20.0248 12.6594 19.9969 12.6045 19.9528 12.5642C19.9087 12.5239 19.8515 12.5011 19.7918 12.5H17.7085ZM10.4168 14.5833C5.81266 14.5833 2.0835 16.4479 2.0835 18.75V20.8333H12.1668C11.7019 19.857 11.46 18.7896 11.4585 17.7083C11.4606 16.6617 11.688 15.6279 12.1252 14.677C11.5731 14.6145 11.0002 14.5833 10.4168 14.5833ZM18.7502 16.1458C19.6147 16.1458 20.3127 16.8437 20.3127 17.7083C20.3127 18.5729 19.6147 19.2708 18.7502 19.2708C17.8752 19.2708 17.1877 18.5729 17.1877 17.7083C17.1877 16.8437 17.8856 16.1458 18.7502 16.1458Z" fill="#697076"/>
</svg>
