<svg width="23" height="23" viewBox="0 0 23 23" fill="none" xmlns="http://www.w3.org/2000/svg">
<rect x="0.5" y="0.5" width="22" height="22" rx="11" stroke="#E3E5E7"/>
<path d="M6.08089 10.4129C5.48506 10.4144 4.99874 10.9105 5.00019 11.5155C5.00164 12.1205 5.49033 12.6144 6.08616 12.6129C6.68199 12.6115 7.1683 12.1153 7.16685 11.5103C7.1654 10.9053 6.67672 10.4115 6.08089 10.4129ZM16.9142 10.387C16.3184 10.3884 15.832 10.8846 15.8335 11.4896C15.8349 12.0946 16.3236 12.5884 16.9195 12.587C17.5153 12.5855 18.0016 12.0894 18.0002 11.4844C17.9987 10.8794 17.51 10.3856 16.9142 10.387ZM11.4975 10.4C10.9017 10.4014 10.4154 10.8975 10.4168 11.5025C10.4183 12.1075 10.907 12.6014 11.5028 12.5999C12.0986 12.5985 12.585 12.1024 12.5835 11.4974C12.5821 10.8924 12.0934 10.3985 11.4975 10.4Z" fill="#595E69"/>
</svg>
