<svg width="41" height="36" viewBox="0 0 41 36" fill="none" xmlns="http://www.w3.org/2000/svg">
<g clip-path="url(#clip0_6163_7088)">
<path d="M30.5265 23.4901C30.6869 23.3372 30.7672 23.1435 30.7674 22.909C30.7676 22.6745 30.6876 22.4732 30.5275 22.3051C29.468 21.1934 28.3359 20.3112 27.1312 19.6586C25.9265 19.006 24.7139 18.5613 23.4934 18.3245C22.2729 18.0877 20.8705 17.9719 19.2861 17.9771C19.0395 17.9778 18.8422 18.0487 18.6941 18.1898C18.5337 18.3427 18.4534 18.5364 18.4532 18.7709C18.453 19.0054 18.533 19.2067 18.6931 19.3748C18.8409 19.5299 19.0382 19.6195 19.2847 19.6435C19.5991 19.6769 20.0461 19.7073 20.6255 19.7347C21.205 19.7622 21.615 19.7847 21.8554 19.8022C23.4643 19.9586 24.8342 20.309 25.965 20.8532C27.0959 21.3974 28.2218 22.2577 29.3429 23.434C29.503 23.6021 29.7002 23.6917 29.9345 23.7028C30.1688 23.7138 30.3661 23.643 30.5265 23.4901ZM37.0896 26.7078C36.5034 27.2664 35.8465 27.7691 35.1186 28.2161C33.4533 29.2358 31.7035 29.7655 29.8694 29.8052C28.0353 29.8449 26.1075 29.4774 24.086 28.7028C22.1015 27.9546 20.4194 26.8566 19.0396 25.4087C18.128 24.4521 17.3921 23.3897 16.8321 22.2214C16.7705 22.095 16.6291 21.6871 16.4077 20.9977C16.1863 20.3084 16.0048 19.8893 15.8631 19.7407C15.7645 19.6373 15.5442 19.6037 15.202 19.6399C14.8598 19.6762 14.5053 19.7365 14.1384 19.821C13.7715 19.9055 13.3939 19.9416 13.0055 19.9294C12.6171 19.9172 12.3336 19.8173 12.155 19.6299C11.8901 19.352 11.7485 19.0953 11.7302 18.8599C11.7119 18.6245 11.7553 18.3025 11.8605 17.894C11.8728 17.8575 11.8883 17.8058 11.9068 17.7388C11.9254 17.6718 11.9393 17.6246 11.9485 17.5973C11.9578 17.5699 11.9779 17.5323 12.0087 17.4844C12.0396 17.4365 12.0766 17.392 12.1198 17.3508C12.3358 17.145 12.658 17.0291 13.0865 17.0031C13.515 16.9771 13.9264 17.0043 14.3209 17.0847C14.7154 17.1651 15.0976 17.2202 15.4675 17.2501C15.8374 17.28 16.0809 17.239 16.1981 17.1273C16.2228 17.1038 16.2969 16.9468 16.4205 16.6564C16.544 16.366 16.6304 16.185 16.6798 16.1133C16.939 15.7552 17.2322 15.4204 17.5591 15.1088C18.2687 14.4326 19.0813 13.9264 19.9971 13.5902C20.9129 13.254 21.8485 13.0962 22.8041 13.1167C23.7596 13.1373 24.7135 13.2797 25.6658 13.5439C26.6181 13.808 27.541 14.1866 28.4345 14.6794C28.8843 14.9291 29.4096 15.3227 30.0102 15.8603C30.6109 16.398 31.1915 16.9516 31.752 17.5213C32.3126 18.0909 32.8808 18.6502 33.4568 19.199C34.0328 19.7478 34.6104 20.2056 35.1896 20.5725C35.7688 20.9394 36.2927 21.1401 36.7612 21.1746L37.3067 21.2004L37.8384 21.2395L38.273 21.3249L38.7583 21.5376L39.2019 21.9197C39.4421 22.1718 39.5173 22.5349 39.4276 23.0089C39.3378 23.483 39.1386 23.9658 38.8299 24.4572C38.5213 24.9487 38.2127 25.3908 37.9041 25.7836C37.5955 26.1763 37.324 26.4844 37.0896 26.7078Z" fill="url(#paint0_radial_6163_7088)"/>
</g>
<g clip-path="url(#clip1_6163_7088)">
<path d="M21.4746 9.45581C21.4461 9.19887 21.3199 8.98779 21.0959 8.82256C20.8719 8.65734 20.621 8.59015 20.343 8.62099C18.5041 8.82502 16.8313 9.25821 15.3247 9.92057C13.818 10.5829 12.5043 11.399 11.3835 12.3686C10.2627 13.3383 9.12409 14.5626 7.96778 16.0414C7.78767 16.2715 7.71077 16.5051 7.73708 16.7423C7.76559 16.9992 7.89183 17.2103 8.1158 17.3755C8.33976 17.5407 8.59073 17.6079 8.86871 17.5771C9.1253 17.5486 9.35544 17.4281 9.55912 17.2154C9.82147 16.9462 10.1781 16.5515 10.6291 16.0312C11.08 15.511 11.402 15.1452 11.595 14.9337C12.9238 13.5458 14.2626 12.5169 15.6115 11.847C16.9604 11.1772 18.6077 10.7343 20.5535 10.5184C20.8315 10.4875 21.0616 10.367 21.2439 10.1567C21.4262 9.94637 21.5031 9.71275 21.4746 9.45581ZM29.3599 5.60976C29.4641 6.54857 29.463 7.51407 29.3566 8.50626C29.1104 10.7745 28.3341 12.7763 27.0277 14.5119C25.7213 16.2475 23.9571 17.7837 21.7352 19.1207C19.5657 20.4418 17.2835 21.2353 14.8887 21.501C13.3064 21.6765 11.7518 21.6139 10.2248 21.3132C10.059 21.2815 9.56553 21.1262 8.7445 20.8472C7.92346 20.5681 7.39 20.4422 7.1441 20.4695C6.97304 20.4885 6.77943 20.67 6.56327 21.0141C6.34711 21.3582 6.14493 21.7308 5.95673 22.1318C5.76853 22.5329 5.52626 22.9099 5.22992 23.2629C4.93358 23.6159 4.63038 23.8096 4.32033 23.844C3.86061 23.895 3.51157 23.8462 3.27321 23.6976C3.03485 23.549 2.759 23.282 2.44567 22.8965C2.4199 22.8594 2.38179 22.8086 2.33135 22.7442C2.28091 22.6797 2.24603 22.6336 2.2267 22.6057C2.20738 22.5779 2.18613 22.5327 2.16297 22.4702C2.1398 22.4078 2.12438 22.342 2.11671 22.2728C2.07833 21.9269 2.20375 21.5454 2.49297 21.1281C2.78219 20.7109 3.10978 20.3469 3.47576 20.0362C3.84173 19.7255 4.17453 19.4084 4.47417 19.0851C4.7738 18.7617 4.9132 18.5062 4.89237 18.3184C4.88798 18.2789 4.79231 18.0994 4.60535 17.78C4.41839 17.4606 4.30874 17.2527 4.27639 17.1563C4.12425 16.6629 4.01913 16.1544 3.96101 15.6306C3.83492 14.4942 3.94685 13.3813 4.29679 12.2921C4.64673 11.2028 5.18172 10.2206 5.90174 9.34543C6.62177 8.47023 7.457 7.68228 8.40743 6.9816C9.35786 6.28091 10.396 5.68804 11.5219 5.20298C12.0902 4.95986 12.8513 4.74786 13.8053 4.56698C14.7593 4.3861 15.7139 4.23517 16.6691 4.11418C17.6244 3.99319 18.5753 3.85767 19.5219 3.70763C20.4685 3.55759 21.3293 3.34203 22.1044 3.06095C22.8796 2.77987 23.4553 2.43338 23.8317 2.02147L24.2563 1.53169L24.6833 1.06415L25.0834 0.719636L25.6425 0.417516L26.3327 0.27341C26.7496 0.227147 27.1517 0.412625 27.5389 0.829844C27.9261 1.24706 28.2415 1.7723 28.4849 2.40555C28.7283 3.0388 28.9246 3.63726 29.0737 4.20095C29.2228 4.76463 29.3182 5.23423 29.3599 5.60976Z" fill="url(#paint1_radial_6163_7088)"/>
</g>
<defs>
<radialGradient id="paint0_radial_6163_7088" cx="0" cy="0" r="1" gradientUnits="userSpaceOnUse" gradientTransform="translate(37.5 22.896) rotate(-144.462) scale(25.807 19.3552)">
<stop stop-color="#82B79E"/>
<stop offset="1" stop-color="#4B858F"/>
</radialGradient>
<radialGradient id="paint1_radial_6163_7088" cx="0" cy="0" r="1" gradientUnits="userSpaceOnUse" gradientTransform="translate(26 2.39612) rotate(138.504) scale(34.7131 47.7972)">
<stop stop-color="#82B79E"/>
<stop offset="1" stop-color="#4B858F"/>
</radialGradient>
<clipPath id="clip0_6163_7088">
<rect width="24" height="18" fill="white" transform="translate(24.0305 6) rotate(46.3788)"/>
</clipPath>
<clipPath id="clip1_6163_7088">
<rect width="28.9726" height="21.2268" fill="white" transform="translate(0 3.19507) rotate(-6.33118)"/>
</clipPath>
</defs>
</svg>
