<svg width="25" height="25" viewBox="0 0 25 25" fill="none" xmlns="http://www.w3.org/2000/svg">
<path d="M10.4168 4.16675C9.31176 4.16675 8.25195 4.60573 7.47055 5.38714C6.68915 6.16854 6.25016 7.22835 6.25016 8.33341C6.25016 9.43848 6.68915 10.4983 7.47055 11.2797C8.25195 12.0611 9.31176 12.5001 10.4168 12.5001C11.5219 12.5001 12.5817 12.0611 13.3631 11.2797C14.1445 10.4983 14.5835 9.43848 14.5835 8.33341C14.5835 7.22835 14.1445 6.16854 13.3631 5.38714C12.5817 4.60573 11.5219 4.16675 10.4168 4.16675ZM17.7085 12.5001C17.6448 12.4989 17.5828 12.5202 17.5333 12.5602C17.4837 12.6002 17.4499 12.6564 17.4377 12.7188L17.2397 14.0938C16.9272 14.2292 16.6252 14.3959 16.3543 14.5834L15.0627 14.0626C14.9481 14.0626 14.8127 14.0626 14.7397 14.198L13.6981 16.0001C13.6356 16.1147 13.6564 16.2501 13.7606 16.3334L14.8647 17.1876C14.8233 17.5336 14.8233 17.8833 14.8647 18.2292L13.7606 19.0834C13.7138 19.1236 13.6821 19.1785 13.6707 19.2391C13.6593 19.2997 13.669 19.3624 13.6981 19.4167L14.7397 21.2188C14.8022 21.3542 14.9377 21.3542 15.0627 21.3542L16.3543 20.8334C16.6252 21.0209 16.9168 21.198 17.2397 21.323L17.4377 22.698C17.4585 22.823 17.5627 22.9167 17.7085 22.9167H19.7918C19.9064 22.9167 20.021 22.823 20.0418 22.698L20.2397 21.323C20.5522 21.1876 20.8335 21.0209 21.1147 20.8334L22.396 21.3542C22.5314 21.3542 22.6668 21.3542 22.7397 21.2188L23.7814 19.4167C23.8105 19.3624 23.8202 19.2997 23.8088 19.2391C23.7974 19.1785 23.7657 19.1236 23.7189 19.0834L22.6043 18.2292C22.6252 18.0522 22.646 17.8855 22.646 17.7084C22.646 17.5313 22.6356 17.3647 22.6043 17.1876L23.7085 16.3334C23.7553 16.2933 23.787 16.2384 23.7984 16.1777C23.8097 16.1171 23.8001 16.0545 23.771 16.0001L22.7293 14.198C22.6668 14.0626 22.5314 14.0626 22.396 14.0626L21.1147 14.5834C20.8335 14.3959 20.5522 14.2188 20.2293 14.0938L20.0314 12.7188C20.0248 12.6595 19.9969 12.6046 19.9528 12.5643C19.9087 12.5241 19.8515 12.5012 19.7918 12.5001H17.7085ZM10.4168 14.5834C5.81266 14.5834 2.0835 16.448 2.0835 18.7501V20.8334H12.1668C11.7019 19.8572 11.46 18.7897 11.4585 17.7084C11.4606 16.6619 11.688 15.628 12.1252 14.6772C11.5731 14.6147 11.0002 14.5834 10.4168 14.5834ZM18.7502 16.1459C19.6147 16.1459 20.3127 16.8438 20.3127 17.7084C20.3127 18.573 19.6147 19.2709 18.7502 19.2709C17.8752 19.2709 17.1877 18.573 17.1877 17.7084C17.1877 16.8438 17.8856 16.1459 18.7502 16.1459Z" fill="#697076"/>
</svg>
