<svg width="22" height="17" viewBox="0 0 22 17" fill="none" xmlns="http://www.w3.org/2000/svg">
<path d="M14.8539 6.53601C14.8341 6.35829 14.7468 6.21229 14.5919 6.098C14.437 5.98372 14.2634 5.93724 14.0711 5.95858C12.7992 6.0997 11.6421 6.39934 10.6 6.85749C9.55783 7.31564 8.64912 7.88008 7.87387 8.5508C7.09861 9.22153 6.31107 10.0683 5.51126 11.0912C5.38668 11.2504 5.33349 11.412 5.35169 11.576C5.37141 11.7537 5.45873 11.8997 5.61364 12.014C5.76856 12.1283 5.94215 12.1748 6.13443 12.1535C6.31191 12.1338 6.47109 12.0504 6.61198 11.9033C6.79345 11.7171 7.04014 11.444 7.35206 11.0842C7.66399 10.7244 7.8867 10.4713 8.02019 10.325C8.93928 9.36502 9.86533 8.65334 10.7983 8.19C11.7314 7.72666 12.8708 7.42032 14.2167 7.27099C14.409 7.24966 14.5682 7.16626 14.6943 7.0208C14.8204 6.87533 14.8736 6.71374 14.8539 6.53601ZM20.308 3.87573C20.3801 4.5251 20.3793 5.19293 20.3057 5.87922C20.1355 7.44811 19.5985 8.8328 18.6949 10.0333C17.7912 11.2338 16.571 12.2964 15.0341 13.2212C13.5335 14.135 11.9549 14.6838 10.2984 14.8676C9.20393 14.989 8.12861 14.9457 7.07244 14.7377C6.95772 14.7158 6.61641 14.6083 6.04851 14.4153C5.48061 14.2223 5.11161 14.1352 4.94152 14.1541C4.8232 14.1672 4.68928 14.2928 4.53977 14.5308C4.39025 14.7688 4.25041 15.0266 4.12023 15.3039C3.99006 15.5813 3.82248 15.8421 3.6175 16.0863C3.41252 16.3305 3.2028 16.4644 2.98835 16.4882C2.67036 16.5235 2.42893 16.4898 2.26405 16.387C2.09918 16.2842 1.90838 16.0995 1.69165 15.8329C1.67383 15.8072 1.64747 15.7721 1.61258 15.7275C1.57769 15.6829 1.55356 15.651 1.5402 15.6317C1.52683 15.6124 1.51213 15.5812 1.49611 15.538C1.48009 15.4948 1.46942 15.4493 1.46411 15.4014C1.43757 15.1622 1.52432 14.8983 1.72437 14.6097C1.92442 14.3211 2.15101 14.0693 2.40416 13.8544C2.6573 13.6395 2.8875 13.4202 3.09475 13.1965C3.302 12.9729 3.39843 12.7961 3.38402 12.6662C3.38098 12.6389 3.31481 12.5147 3.18549 12.2938C3.05617 12.0729 2.98033 11.9291 2.95795 11.8624C2.85272 11.5211 2.78 11.1694 2.73981 10.8071C2.65259 10.021 2.73001 9.25127 2.97206 8.49785C3.21411 7.74443 3.58416 7.06504 4.0822 6.45967C4.58023 5.8543 5.15795 5.30928 5.81536 4.82462C6.47277 4.33996 7.19086 3.92988 7.96962 3.59436C8.3627 3.4262 8.88917 3.27956 9.54904 3.15445C10.2089 3.02934 10.8692 2.92494 11.5299 2.84125C12.1907 2.75756 12.8484 2.66382 13.5031 2.56004C14.1579 2.45626 14.7533 2.30715 15.2895 2.11273C15.8256 1.91831 16.2239 1.67865 16.4842 1.39374L16.7779 1.05496L17.0733 0.731559L17.35 0.493264L17.7367 0.28429L18.2141 0.184612C18.5025 0.152613 18.7807 0.280907 19.0485 0.569494C19.3163 0.858081 19.5344 1.22138 19.7028 1.6594C19.8712 2.09741 20.0069 2.51137 20.1101 2.90126C20.2132 3.29116 20.2792 3.61598 20.308 3.87573Z" fill="url(#paint0_radial_6181_13853)"/>
<defs>
<radialGradient id="paint0_radial_6181_13853" cx="0" cy="0" r="1" gradientUnits="userSpaceOnUse" gradientTransform="translate(17.984 1.65287) rotate(138.504) scale(24.0108 33.061)">
<stop stop-color="#82B79E"/>
<stop offset="1" stop-color="#4B858F"/>
</radialGradient>
</defs>
</svg>
