<svg width="16" height="16" viewBox="0 0 16 16" fill="none" xmlns="http://www.w3.org/2000/svg">
<mask id="mask0_6163_7286" style="mask-type:luminance" maskUnits="userSpaceOnUse" x="0" y="0" width="16" height="16">
<path d="M7.99999 15C8.91941 15.0011 9.82999 14.8206 10.6794 14.4687C11.5288 14.1169 12.3004 13.6007 12.9497 12.9497C13.6006 12.3004 14.1169 11.5289 14.4687 10.6794C14.8206 9.83001 15.0011 8.91943 15 8.00001C15.0011 7.08059 14.8206 6.17001 14.4687 5.32058C14.1169 4.47115 13.6006 3.69962 12.9497 3.05031C12.3004 2.39936 11.5288 1.88313 10.6794 1.53128C9.82999 1.17942 8.91941 0.998872 7.99999 1.00001C7.08058 0.998872 6.17 1.17942 5.32057 1.53128C4.47114 1.88313 3.69961 2.39936 3.0503 3.05031C2.39936 3.69962 1.88313 4.47115 1.53127 5.32058C1.17942 6.17001 0.998872 7.08059 1.00001 8.00001C0.998872 8.91943 1.17942 9.83001 1.53127 10.6794C1.88313 11.5289 2.39936 12.3004 3.0503 12.9497C3.69961 13.6007 4.47114 14.1169 5.32057 14.4687C6.17 14.8206 7.08058 15.0011 7.99999 15Z" fill="white" stroke="white" stroke-width="2" stroke-linejoin="round"/>
<path d="M5.19995 7.9999L7.29995 10.0999L11.4999 5.8999" stroke="black" stroke-width="2" stroke-linecap="round" stroke-linejoin="round"/>
</mask>
<g mask="url(#mask0_6163_7286)">
<path d="M-0.400024 -0.399902H16.3999V16.4001H-0.400024V-0.399902Z" fill="#99C4AF"/>
</g>
</svg>
