<svg width="19" height="17" viewBox="0 0 19 17" fill="none" xmlns="http://www.w3.org/2000/svg">
<path d="M13.3944 6.35615C13.3747 6.17842 13.2873 6.03242 13.1324 5.91813C12.9775 5.80385 12.8039 5.75737 12.6116 5.77871C11.3397 5.91983 10.1826 6.21947 9.1405 6.67762C8.09835 7.13577 7.18965 7.70021 6.41439 8.37094C5.63914 9.04166 4.8516 9.88847 4.05178 10.9114C3.9272 11.0705 3.87401 11.2321 3.89222 11.3961C3.91193 11.5739 3.99925 11.7199 4.15417 11.8342C4.30909 11.9484 4.48268 11.9949 4.67495 11.9736C4.85244 11.9539 5.01162 11.8705 5.15251 11.7234C5.33397 11.5372 5.58067 11.2642 5.89259 10.9043C6.20452 10.5445 6.42722 10.2914 6.56072 10.1452C7.4798 9.18515 8.40585 8.47347 9.33887 8.01013C10.2719 7.54679 11.4114 7.24045 12.7573 7.09112C12.9495 7.06979 13.1087 6.98639 13.2348 6.84093C13.3609 6.69546 13.4141 6.53387 13.3944 6.35615ZM18.8486 3.69586C18.9206 4.34523 18.9199 5.01306 18.8463 5.69935C18.676 7.26825 18.139 8.65293 17.2354 9.85342C16.3318 11.0539 15.1115 12.1165 13.5747 13.0413C12.074 13.9551 10.4954 14.5039 8.83893 14.6877C7.74446 14.8091 6.66914 14.7658 5.61297 14.5578C5.49825 14.5359 5.15694 14.4285 4.58904 14.2355C4.02113 14.0424 3.65214 13.9554 3.48205 13.9742C3.36373 13.9874 3.22981 14.1129 3.08029 14.351C2.93078 14.589 2.79093 14.8467 2.66076 15.1241C2.53058 15.4015 2.36301 15.6622 2.15803 15.9064C1.95305 16.1506 1.74333 16.2846 1.52887 16.3084C1.21088 16.3436 0.969453 16.3099 0.804582 16.2071C0.63971 16.1043 0.448909 15.9196 0.232178 15.653C0.214354 15.6273 0.187998 15.5922 0.153108 15.5476C0.118219 15.503 0.0940906 15.4711 0.0807227 15.4519C0.0673549 15.4326 0.0526597 15.4013 0.0366374 15.3581C0.0206151 15.3149 0.00994944 15.2694 0.00464063 15.2216C-0.0219038 14.9823 0.0648486 14.7184 0.264898 14.4298C0.464947 14.1412 0.691542 13.8894 0.944684 13.6745C1.19783 13.4596 1.42802 13.2403 1.63528 13.0166C1.84253 12.793 1.93895 12.6162 1.92454 12.4863C1.92151 12.459 1.85533 12.3349 1.72602 12.1139C1.5967 11.893 1.52085 11.7492 1.49848 11.6825C1.39324 11.3413 1.32053 10.9895 1.28033 10.6272C1.19312 9.84115 1.27053 9.0714 1.51259 8.31798C1.75464 7.56456 2.12469 6.88517 2.62272 6.2798C3.12076 5.67443 3.69848 5.12941 4.35589 4.64475C5.0133 4.16009 5.73138 3.75001 6.51015 3.41449C6.90323 3.24633 7.4297 3.09969 8.08957 2.97458C8.74944 2.84947 9.40974 2.74507 10.0705 2.66138C10.7312 2.57769 11.3889 2.48395 12.0437 2.38017C12.6984 2.27639 13.2939 2.12728 13.83 1.93286C14.3662 1.73845 14.7644 1.49878 15.0248 1.21387L15.3184 0.875088L15.6138 0.55169L15.8906 0.313395L16.2772 0.104421L16.7547 0.00474345C17.0431 -0.027256 17.3212 0.101038 17.589 0.389625C17.8568 0.678212 18.075 1.04151 18.2433 1.47953C18.4117 1.91754 18.5475 2.3315 18.6506 2.72139C18.7538 3.11129 18.8197 3.43611 18.8486 3.69586Z" fill="url(#paint0_radial_6181_14689)"/>
<defs>
<radialGradient id="paint0_radial_6181_14689" cx="0" cy="0" r="1" gradientUnits="userSpaceOnUse" gradientTransform="translate(16.5245 1.47301) rotate(138.504) scale(24.0108 33.061)">
<stop stop-color="#82B79E"/>
<stop offset="1" stop-color="#4B858F"/>
</radialGradient>
</defs>
</svg>
