<svg width="10" height="10" viewBox="0 0 10 10" fill="none" xmlns="http://www.w3.org/2000/svg">
<path d="M1 0.75H9C9.0663 0.75 9.12987 0.776358 9.17676 0.823242C9.22364 0.870125 9.25 0.933695 9.25 1V7C9.25 7.0663 9.22364 7.12987 9.17676 7.17676C9.12987 7.22364 9.0663 7.25 9 7.25H5.63867L5.41895 7.4707L3.75 9.14355V7.25H1C0.933696 7.25 0.870126 7.22364 0.823242 7.17676C0.776358 7.12987 0.75 7.0663 0.75 7V1L0.754883 0.951172C0.764468 0.903057 0.78804 0.858444 0.823242 0.823242C0.870126 0.776358 0.933696 0.75 1 0.75Z" stroke="#989898" stroke-width="1.5"/>
</svg>
