<svg width="10" height="10" viewBox="0 0 10 10" fill="none" xmlns="http://www.w3.org/2000/svg">
<path d="M5 8.83446L2 9.89459C1.52381 10.0615 1.07143 10.0297 0.642857 9.79918C0.214286 9.5687 0 9.24222 0 8.81973V1.17793C0 0.853998 0.14 0.576792 0.42 0.346311C0.7 0.11583 1.03619 0.000392643 1.42857 0H8.57143C8.96428 0 9.30071 0.115437 9.58071 0.346311C9.86071 0.577185 10.0005 0.85439 10 1.17793V8.81973C10 9.24183 9.78571 9.56831 9.35714 9.79918C8.92857 10.0301 8.47619 10.0619 8 9.89459L5 8.83446ZM5 7.53874L8.57143 8.80501V1.17793H1.42857V8.80501L5 7.53874ZM5 1.17793H1.42857H8.57143H5Z" fill="#989898"/>
</svg>
