<svg width="10" height="10" viewBox="0 0 10 10" fill="none" xmlns="http://www.w3.org/2000/svg">
<path d="M5 10.3682L1.1 11.8524C0.480952 12.0861 -0.107143 12.0415 -0.664286 11.7189C-1.22143 11.3962 -1.5 10.9391 -1.5 10.3476V-0.350901C-1.5 -0.804403 -1.318 -1.19249 -0.954 -1.51516C-0.59 -1.83784 -0.152953 -1.99945 0.357143 -2H9.64286C10.1536 -2 10.5909 -1.83839 10.9549 -1.51516C11.3189 -1.19194 11.5006 -0.803854 11.5 -0.350901V10.3476C11.5 10.9386 11.2214 11.3956 10.6643 11.7189C10.1071 12.0421 9.51905 12.0866 8.9 11.8524L5 10.3682ZM5 8.55423L9.64286 10.327V-0.350901H0.357143V10.327L5 8.55423ZM5 -0.350901H0.357143H9.64286H5Z" fill="#989898"/>
</svg>
