<svg width="14" height="14" viewBox="0 0 14 14" fill="none" xmlns="http://www.w3.org/2000/svg">
<mask id="mask0_6163_7286" style="mask-type:luminance" maskUnits="userSpaceOnUse" x="-1" y="-1" width="16" height="16">
<path d="M6.99999 14C7.91941 14.0011 8.82999 13.8206 9.67942 13.4687C10.5288 13.1169 11.3004 12.6007 11.9497 11.9497C12.6006 11.3004 13.1169 10.5289 13.4687 9.67944C13.8206 8.83001 14.0011 7.91943 14 7.00001C14.0011 6.08059 13.8206 5.17001 13.4687 4.32058C13.1169 3.47115 12.6006 2.69962 11.9497 2.05031C11.3004 1.39936 10.5288 0.883132 9.67942 0.531276C8.82999 0.179419 7.91941 -0.00112846 6.99999 5.30668e-06C6.08058 -0.00112846 5.17 0.179419 4.32057 0.531276C3.47114 0.883132 2.69961 1.39936 2.0503 2.05031C1.39936 2.69962 0.88313 3.47115 0.531275 4.32058C0.179419 5.17001 -0.00112846 6.08059 5.30667e-06 7.00001C-0.00112846 7.91943 0.179419 8.83001 0.531275 9.67944C0.88313 10.5289 1.39936 11.3004 2.0503 11.9497C2.69961 12.6007 3.47114 13.1169 4.32057 13.4687C5.17 13.8206 6.08058 14.0011 6.99999 14Z" fill="white" stroke="white" stroke-width="2" stroke-linejoin="round"/>
<path d="M4.19995 6.9999L6.29995 9.0999L10.4999 4.8999" stroke="black" stroke-width="2" stroke-linecap="round" stroke-linejoin="round"/>
</mask>
<g mask="url(#mask0_6163_7286)">
<path d="M-1.40002 -1.3999H15.3999V15.4001H-1.40002V-1.3999Z" fill="#99C4AF"/>
</g>
</svg>
