<svg width="23" height="23" viewBox="0 0 23 23" fill="none" xmlns="http://www.w3.org/2000/svg">
<rect x="0.5" y="0.5" width="22" height="22" rx="11" stroke="#E3E5E7" stroke-opacity="0.4"/>
<path d="M6.08077 10.4129C5.48494 10.4144 4.99862 10.9105 5.00007 11.5155C5.00152 12.1205 5.49021 12.6144 6.08604 12.6129C6.68187 12.6115 7.16818 12.1153 7.16673 11.5103C7.16528 10.9053 6.6766 10.4115 6.08077 10.4129ZM16.9141 10.387C16.3182 10.3884 15.8319 10.8846 15.8334 11.4896C15.8348 12.0946 16.3235 12.5884 16.9193 12.587C17.5152 12.5855 18.0015 12.0894 18 11.4844C17.9986 10.8794 17.5099 10.3856 16.9141 10.387ZM11.4974 10.4C10.9016 10.4014 10.4153 10.8975 10.4167 11.5025C10.4182 12.1075 10.9069 12.6014 11.5027 12.5999C12.0985 12.5985 12.5848 12.1024 12.5834 11.4974C12.5819 10.8924 12.0932 10.3985 11.4974 10.4Z" fill="#595E69"/>
</svg>
